<svg width="167" height="133" viewBox="0 0 167 133" fill="none" xmlns="http://www.w3.org/2000/svg">
<path d="M40.1152 51.6875H53.5215L55.6543 58.9238L54.207 59H38.668C36.8906 59 35.3672 58.4668 34.0977 57.4004L40.1152 51.6875ZM39.125 50.6973L33.1074 56.334C32.0918 55.0137 31.6602 53.4648 31.8125 51.6875L32.9551 32.7207L35.5449 30.8164L40.1914 34.4727L39.125 50.6973ZM40.7246 25.1035L35.6973 28.7598L33.3359 26.8555L34.5547 7.8125C34.6562 6.08594 35.291 4.5625 36.459 3.24219L41.791 8.87891L40.7246 25.1035ZM92.8262 7.8125H79.4199L74.0879 2.17578C75.5098 1.05859 77.1094 0.5 78.8867 0.5H94.4258L95.873 0.652344L92.8262 7.8125ZM76.6777 51.6875H90.084L92.2168 58.9238L90.7695 59H75.2305C73.4531 59 71.9297 58.4668 70.6602 57.4004L76.6777 51.6875ZM75.6875 50.6973L69.6699 56.334C68.6543 55.0137 68.2227 53.4648 68.375 51.6875L69.5176 32.7207L72.1074 30.8164L76.7539 34.4727L75.6875 50.6973ZM77.2871 25.1035L72.2598 28.7598L69.8984 26.8555L71.1172 7.8125C71.2188 6.08594 71.8535 4.5625 73.0215 3.24219L78.3535 8.87891L77.2871 25.1035ZM73.25 29.75L78.2773 26.0938H91.7598L96.3301 29.75L91.3027 33.4062H77.8203L73.25 29.75ZM113.24 51.6875H126.646L128.779 58.9238L127.332 59H111.793C110.016 59 108.492 58.4668 107.223 57.4004L113.24 51.6875ZM112.25 50.6973L106.232 56.334C105.217 55.0137 104.785 53.4648 104.938 51.6875L106.08 32.7207L108.67 30.8164L113.316 34.4727L112.25 50.6973ZM113.85 25.1035L108.822 28.7598L106.461 26.8555L107.68 7.8125C107.781 6.08594 108.416 4.5625 109.584 3.24219L114.916 8.87891L113.85 25.1035ZM2.5625 76.875C3 76.875 3.21875 77.0833 3.21875 77.5H3.40625C3.40625 77.2292 3.76042 77.0938 4.46875 77.0938V76.875L4.65625 77.0938H5.3125L5.5 76.875L5.71875 77.0938H8.65625C8.65625 77.5104 8.79167 77.7188 9.0625 77.7188C9.0625 77.3021 9.55208 77.0938 10.5312 77.0938L10.75 77.2812H10.9375L11.7812 77.0938L12.8438 77.5C12.8438 77.1667 13.5417 76.9583 14.9375 76.875L15.7812 77.0938L16.5938 76.875L16.8125 77.0938H17.0312L17.25 76.875H17.4375C18.7917 76.875 19.6354 78.1354 19.9688 80.6562L25.4062 103.25H25.1875L24.9688 103.062H24.7812L24.5625 103.25V103.062L24.7812 102.844L24.5625 102.219H24.3438V103.469H24.5625L24.7812 103.25H24.9688C25.5938 103.25 26.3646 105.906 27.2812 111.219H27.7188V111L28.3438 107.438H29.375V107.875L29.8125 107.438L29.1875 106.812L29.375 106.625V106H29.1875C29.1875 106.542 29.0417 106.812 28.75 106.812V106.406C28.8333 105.573 29.0417 105.156 29.375 105.156L29.1875 104.938V104.719C29.7292 101.365 30.2083 99.6875 30.625 99.6875L30.4375 99.5L35.4688 78.5625C35.4688 77.5417 36.3021 76.9792 37.9688 76.875H38.375V77.0938L39.8438 76.875L45.0938 77.0938L45.9375 76.875L46.125 77.0938H46.3438L46.5625 76.875L47.5938 77.0938L48.4375 76.875L49.2812 77.0938H49.6875L49.9062 76.875C50.7396 76.9583 51.1562 77.2396 51.1562 77.7188H51.375C51.375 77.3021 51.5833 77.0938 52 77.0938V76.875C53.6667 76.875 54.5 77.6458 54.5 79.1875V87.9688L54.0938 88.4062H53.875C53.0417 87.9688 52.625 87.5417 52.625 87.125L52 87.3438V87.5625L53.875 88.5938V89.0312C53.4583 89.0312 53.25 89.1667 53.25 89.4375H53.4688L54.5 89.2188V90.0625L54.3125 90.2812L54.5 90.5V91.125H53.875C54.2917 91.625 54.5 92.1146 54.5 92.5938L54.3125 94.0625L54.5 97.1875V108.719L54.3125 108.906L54.5 109.125V111.219L54.3125 111.438L54.5 112.062L54.3125 112.281V112.469L54.5 113.312H54.3125L54.5 113.531V115.406C54.5 116.802 54.3646 117.5 54.0938 117.5L54.5 119.188V120.031L53.875 119.594V119.812L54.5 120.656V122.312L54.0938 123.562H54.3125L54.5 123.375V128.188L54.3125 128.406L54.5 128.594V130.281L54.0938 130.688L54.3125 130.906V131.531C54.3125 132.51 53.4062 133 51.5938 133H43.4062C41.8646 133 41.0938 132.229 41.0938 130.688V126.312L41.5312 125.031L41.3125 124.844H41.75L41.0938 124V122.75L41.3125 122.938H41.5312L41.75 121.906H41.5312L41.3125 122.125H41.0938V120.219L41.5312 119.594H41.0938V111.844L41.3125 111.625L41.0938 111.438V106.625H40.9062L39 114.156L38.8125 113.938H38.375V114.156H38.8125V114.375L37.9688 117.906H37.5625L37.3438 117.719H37.125V117.906L37.75 118.562C37.1667 121.062 36.6146 122.312 36.0938 122.312L35.4688 121.906C35.0104 121.906 34.7292 122.458 34.625 123.562C34.8958 123.562 35.0312 123.354 35.0312 122.938L35.25 122.75H35.4688C35.7604 122.75 35.9688 123.375 36.0938 124.625C35.2396 128.104 34.6042 129.844 34.1875 129.844L34.4062 130.062V130.688L34 132.375H33.7812C33.4479 132.375 32.8854 131.75 32.0938 130.5H31.6875V130.281L32.5312 130.062L33.1562 130.688V130.5L32.0938 129.031H31.9062V128.594L32.0938 128.406V128.188L31.2812 128.812L31.9062 129.438C31.6146 129.438 31.4688 129.646 31.4688 130.062L30.2188 129.031V129.438C30.5521 129.438 30.9062 129.719 31.2812 130.281V131.312C31.8229 131.312 32.0938 131.458 32.0938 131.75V131.938L32.3125 131.75H32.5312L33.5625 132.375L33.1562 132.781H32.7188C32.4479 132.781 32.3125 132.573 32.3125 132.156H32.0938V133L31.9062 132.781H31.6875L31.4688 133V132.594L29.5938 133L30 132.375L29.8125 132.156H29.5938C29.5938 132.719 29.3854 133 28.9688 133H26.6562L26.4375 132.781L26.25 133H25.8125L24.5625 132.594V132.781L24.7812 133H23.9375L23.7188 132.781L23.5312 133H22.875L21.8438 132.781V133C20.7604 133 19.9896 131.677 19.5312 129.031L13.4688 106.625H13.25L13.4688 107.875L13.25 109.969L13.4688 111.438L13.25 112.906L13.4688 114.156L13.25 115H13.4688L13.25 115.188L13.4688 118.344V121.062L13.25 121.281L13.4688 121.469V122.125L13.25 122.938L13.4688 123.562L13.25 123.781L13.4688 124.844V125.656L13.25 125.875L13.4688 126.5L13.25 127.562C12.2708 127.229 11.4375 126.667 10.75 125.875H11.1562V125.031L10.9375 125.25H10.5312L10.3125 125.031H10.125V125.469H10.75L10.5312 126.094L9.6875 125.656V125.875C10.3958 125.875 10.75 126.292 10.75 127.125L10.9375 126.938H11.375C11.4375 127.479 11.6458 127.75 12 127.75V127.344C12.8333 127.344 13.25 127.833 13.25 128.812L13.4688 129.438L13.25 129.656V131.938L12.625 132.594L12.4062 132.375V132.781L11.375 132.594L11.5938 132.781V133H10.9375L10.75 132.781L10.125 133L9.28125 132.594V133H7.1875L6.5625 132.594V133H5.5C4.39583 132.146 3.84375 131.521 3.84375 131.125L3.625 131.312H3.40625C2.71875 130.25 2.375 129.49 2.375 129.031L1.75 129.438C1.16667 128.604 0.677083 128.188 0.28125 128.188L0.0625 127.969V120.656H0.46875L0.0625 119.375V118.344L0.46875 117.719L0.0625 117.281V108.906H0.28125C0.552083 108.906 0.6875 109.115 0.6875 109.531H0.90625V109.125L0.28125 108.5V107.875H0.90625C1.17708 107.875 1.3125 108.219 1.3125 108.906H1.75V108.5C2.16667 108.5 2.375 108.292 2.375 107.875L2.78125 107.438L3 107.656L3.21875 107.438L3.625 108.094H2.78125V108.281L5.09375 109.125V108.906L4.03125 107.656V107.438H4.25L6.75 109.75H6.96875C5.55208 108.438 4.36458 107.115 3.40625 105.781C2.98958 105.781 2.78125 105.635 2.78125 105.344L3 105.156C1.04167 104.302 0.0625 103.25 0.0625 102V99.6875H0.46875L0.0625 99.0625V98.4375H0.46875L0.0625 97.8125V96.1562L0.6875 96.5625H0.90625V96.3438L0.46875 95.9375L0.28125 96.1562L0.0625 94.6875V94.0625L0.28125 93.8438L0.0625 93.625V88.8125L0.46875 88.4062L0.6875 89.0312L0.46875 89.6562H0.6875L1.9375 90.2812L1.75 90.0625V89.8438L1.9375 89.6562V89.4375H1.125V89.0312L1.3125 88.8125V88.5938C0.895833 88.5938 0.479167 88.3125 0.0625 87.75L0.28125 87.5625L0.0625 85.0312V83.7812L0.6875 84.2188L0.46875 84.4062V84.625L0.6875 84.8438L0.46875 85.0312V85.25C0.71875 86.0833 1 86.5 1.3125 86.5V87.125L1.125 87.3438C1.70833 88.6354 2.40625 89.75 3.21875 90.6875L3 91.3125H3.21875L3.625 91.75L3.84375 91.5312H4.03125L4.46875 91.9688H3.84375L4.25 92.5938L4.03125 92.7812L5.3125 94.0625L5.09375 94.25L3.40625 93.8438H2.78125V94.0625C3.19792 94.0625 3.40625 94.1979 3.40625 94.4688C3.19792 94.4688 2.98958 94.75 2.78125 95.3125H3.21875V94.875H3.40625C4.23958 95.1667 4.65625 95.5938 4.65625 96.1562H5.09375C5.09375 95.4896 4.53125 95 3.40625 94.6875L3.84375 94.25L4.46875 94.4688V94.25L4.65625 94.4688H4.875L5.09375 94.25H5.3125C6.41667 94.5833 6.96875 94.8646 6.96875 95.0938L8.03125 94.6875L8.4375 95.0938H9.6875L9.28125 94.6875L8.65625 94.875C8.46875 94.1875 8.26042 93.8438 8.03125 93.8438V94.0625L8.21875 94.25V94.4688H7.59375L7.40625 94.25L7.1875 94.4688H6.75V94.0625C7.04167 94.0625 7.1875 93.7812 7.1875 93.2188H7.59375L7.40625 93V92.7812H7.8125V92.5938L7.1875 92.375V92.5938L6.34375 92.375V91.75L6.96875 92.1562L7.59375 91.9688V91.75C6.90625 91.75 6.5625 91.6042 6.5625 91.3125C6.91667 90.8958 7.26042 90.6875 7.59375 90.6875L7.1875 90.2812L6.75 90.6875H6.5625L6.75 90.5V90.2812L6.125 90.0625L5.9375 90.2812V90.5L6.125 90.6875H5.9375L5.3125 90.5L5.5 90.2812V90.0625L4.46875 89.8438V89.6562H5.09375L4.03125 88.8125L3.84375 89.0312H3.625V88.8125L4.03125 88.1875C3.76042 88.1875 3.27083 87.4896 2.5625 86.0938L3.21875 85.875V85.6562C2.42708 85.6562 1.79167 84.5417 1.3125 82.3125H1.75L0.90625 80.6562L1.125 80.4375H0.90625L0.46875 80.8438L0.28125 78.9688L0.90625 78.3438L0.46875 77.9375V77.7188C0.46875 77.5104 0.75 77.3021 1.3125 77.0938C2.14583 77.7812 2.5625 78.2708 2.5625 78.5625H2.78125V77.9375C2.21875 77.9375 1.9375 77.6562 1.9375 77.0938L2.5625 76.875ZM10.125 77.2812L9.90625 77.5V77.7188L10.125 77.9375H10.3125L10.5312 77.7188V77.9375L10.3125 78.125V78.3438H10.5312L10.9375 77.7188V77.5L10.125 77.2812ZM11.5938 77.5L10.9375 78.5625H11.375L12 78.3438L11.375 79.375V79.5938H11.5938C11.5938 79.3229 11.9375 79.1875 12.625 79.1875C12.25 78.0625 11.9062 77.5 11.5938 77.5ZM44.25 77.5C44.25 77.9167 44.0417 78.125 43.625 78.125L43.4062 79.1875C43.1354 79.1875 43 78.9792 43 78.5625L42.7812 78.3438H42.5625L42.1562 78.75C42.4271 78.75 42.5625 78.9583 42.5625 79.375L42.7812 79.5938H43.4062L44.0312 78.9688L43.8438 78.75V78.5625L44.6562 77.7188L44.4688 77.5H44.25ZM49.2812 77.9375V78.9688H49.5V77.9375H49.2812ZM15.7812 78.125L15.5625 78.3438V78.75H15.7812L15.9688 78.125H15.7812ZM45.0938 78.9688V79.375L45.9375 79.5938L46.125 79.375V79.1875H45.7188L45.9375 78.9688V78.3438H45.7188L45.0938 78.9688ZM41.9375 79.5938L42.7812 80.2188V80.0312L42.1562 79.5938H41.9375ZM46.75 80.4375L46.5625 81.2812L46.75 81.9062H46.9688V81.2812H46.75L46.9688 80.6562V80.4375H46.75ZM46.125 81.6875L45.5 83.1562H45.9375C45.9375 82.5938 46.0729 82.3125 46.3438 82.3125V83.375H45.9375V83.7812H46.125C46.4167 83.7812 46.5625 83.5729 46.5625 83.1562L46.75 83.375H46.9688V82.9375L46.3438 82.125L46.5625 81.9062L46.3438 81.6875H46.125ZM51.5938 82.5312V82.75L52 83.1562H52.2188L51.5938 82.5312ZM52.2188 83.375L52.4062 84.2188H52.8438V84L52.2188 83.375ZM51.1562 83.5625L51.375 83.7812L51.1562 84V84.625L51.5938 84.2188V83.5625H51.1562ZM44.0312 83.7812V84.625L44.25 84.4062H44.4688L44.25 83.7812H44.0312ZM45.5 84.625V84.8438L46.3438 85.0312L46.5625 84.8438V84.2188H45.9375L45.5 84.625ZM8.65625 84.625V85.0312L9.28125 85.25V85.0312L8.65625 84.625ZM42.7812 85.25V85.4688L43.8438 86.3125L43.625 86.0938V85.6562L43.8438 85.4688L43.625 84.8438H43.2188L42.7812 85.25ZM50.9375 84.8438V85.25H51.1562L50.5312 86.9375C50.9062 86.9375 51.1875 86.4479 51.375 85.4688L51.1562 84.8438H50.9375ZM47.5938 85.0312L48.0312 85.4688H48.2188L47.8125 85.0312H47.5938ZM47.1875 86.7188L46.9688 87.75L47.1875 87.9688L46.9688 88.1875H46.75V87.75H46.5625L46.3438 87.9688H46.125L45.9375 87.75L45.7188 87.9688V88.1875L45.9375 88.4062H45.5C45.5 87.8438 45.3646 87.5625 45.0938 87.5625V87.9688L45.3125 88.8125C45.125 89.7917 44.9062 90.2812 44.6562 90.2812V90.0625L44.875 89.2188C44.4583 89.2188 44.25 88.6667 44.25 87.5625L44.4688 87.3438L43.8438 87.125L43.625 88.4062L43.8438 88.5938V89.2188C43.2396 89.2188 42.8125 89.8542 42.5625 91.125H42.7812L43 92.1562L43.2188 92.375H43.4062V91.5312L43 90.9062L43.2188 90.6875H43.625V91.5312H43.8438C44.1146 91.5312 44.25 91.3229 44.25 90.9062H44.6562C44.9479 90.9062 45.0938 91.1146 45.0938 91.5312V91.75H44.875V91.3125H44.6562V91.5312L44.875 92.375H45.0938L45.3125 92.1562H45.5L45.7188 92.375V92.7812H45.5L45.3125 92.5938L44.25 93L44.0312 92.7812V93L44.4688 93.625V94.0625C43.9062 93.9167 43.625 93.5625 43.625 93H43.4062V93.4062L43.625 94.0625H43.4062L42.5625 94.25V94.6875L43.4062 94.4688C43.7812 94.4688 44.0625 94.9583 44.25 95.9375L44.4688 95.7188H44.6562L45.0938 96.1562L44.875 96.3438V96.5625L45.7188 96.9688V96.7812L45.5 96.5625V96.3438H45.7188L45.9375 96.5625H46.125V96.3438C46.125 96.0729 45.9167 95.9375 45.5 95.9375V95.7188L46.125 95.5C46.5417 95.6042 46.8229 95.8854 46.9688 96.3438L46.75 96.9688L47.1875 97.4062L46.5625 98.0312H46.3438V97.5938H46.125L45.7188 98.0312H45.9375L46.125 97.8125V98.25H47.1875L47.8125 98.6562L47.4062 99.5H47.8125L47.5938 99.6875L47.8125 99.9062V100.344H47.4062C47.4062 99.7812 47.125 99.5 46.5625 99.5L46.75 99.2812V99.0625L46.5625 99.2812H45.9375V98.875L45.7188 99.0625H45.5L45.0938 98.6562V98.4375H45.7188V98.25H44.875L44.6562 98.4375V98.6562L45.0938 99.0625V99.5H44.6562V99.0625H44.4688L43.8438 99.5V98.875C43.8438 98.5833 44.0521 98.4375 44.4688 98.4375L44.25 98.25V98.0312C44.25 97.6146 44.5312 97.4062 45.0938 97.4062V97.1875L44.6562 96.7812L44.4688 96.9688H44.25L43.625 96.7812V97.5938L43.8438 97.4062H44.0312V97.8125L43.625 98.875H43.2188V98.4375L42.7812 98.0312H42.5625V98.4375C42.9375 98.4375 43.2188 99.0729 43.4062 100.344H43.625L43.8438 100.125L44.4688 101.156V101.375H44.0312V101.594C44.3854 101.594 44.875 101.875 45.5 102.438V102L45.3125 101.375H45.5L45.7188 101.156H45.9375V101.781L45.7188 102V102.219H45.9375L46.3438 101.375L46.9688 101.781L47.1875 100.969H47.5938C47.8229 100.969 48.1042 101.385 48.4375 102.219H48.8438V102L48.2188 100.531C48.6354 100.531 48.8438 100.25 48.8438 99.6875H49.5V100.125H49.6875V99.6875L49.5 99.5H49.6875L49.9062 99.6875H50.125V99.0625L49.2812 99.5L48.4375 99.2812L48.2188 99.5V98.875H48.6562L48.8438 99.0625H49.0625V98.6562H48.6562C48.6562 98.2396 48.5104 98.0312 48.2188 98.0312L48.0312 98.25L47.5938 97.8125L47.4062 98.0312L47.1875 97.8125V97.5938H47.8125L48.0312 97.8125H48.2188V97.4062L48.8438 98.25L49.0625 98.4375H49.6875V98.25C49.125 98.25 48.8438 97.8958 48.8438 97.1875H48.4375V96.9688L48.6562 96.3438H48.2188V95.9375L48.6562 95.5L48.8438 95.7188C48.8438 95.3021 49.0625 95.0938 49.5 95.0938V94.6875H48.2188V94.4688C48.6354 94.4688 48.8438 94.3333 48.8438 94.0625L48.2188 93.4062V93.2188L48.4375 93.4062H48.6562L48.4375 92.5938C48.4375 91.8854 48.6458 91.5312 49.0625 91.5312V91.125H48.4375L49.0625 90.5C49.0625 90.7708 49.3438 90.9062 49.9062 90.9062L50.125 91.125V91.3125C50.5417 91.3125 50.75 91.1042 50.75 90.6875L50.9375 90.9062H51.1562L51.375 90.6875C51.5833 91.25 51.7917 91.5312 52 91.5312L52.2188 91.3125V91.125L52 90.5H52.2188L51.5938 89.4375H51.7812C51.5729 88.875 51.3646 88.5938 51.1562 88.5938H50.9375L51.375 90.0625L50.75 90.5V90.0625L50.125 90.5H49.9062V89.6562H50.5312V89.4375H49.9062V89.2188H50.3125L49.9062 88.8125H49.6875V90.0625L48.4375 89.6562C48.4375 90.0729 48.3021 90.2812 48.0312 90.2812L47.8125 89.6562L48.0312 89.4375V89.2188L47.8125 89.0312V88.8125H48.0312L47.5938 87.9688L47.8125 87.75V87.5625L47.5938 86.7188H47.1875ZM8.65625 86.9375V87.3438C9.07292 87.3438 9.28125 87.4792 9.28125 87.75H9.5V87.125L8.65625 86.9375ZM36.0938 86.9375V87.75H36.5C36.5 88.1875 36.6354 88.4062 36.9062 88.4062V89.0312L36.7188 89.2188V89.4375H36.9062L37.3438 89.0312L37.125 88.8125V88.5938L37.3438 87.9688L36.0938 86.9375ZM39 87.3438H39.2188L38.375 89.2188H38.5938C39.1562 88.3229 39.4375 87.625 39.4375 87.125V86.9375L39 87.3438ZM34.625 87.9688V88.1875L34.8125 88.4062V88.5938H34.4062V89.4375H34.8125V88.8125C35.1042 88.8125 35.25 89.2292 35.25 90.0625C35.5625 90.0625 35.8438 90.3438 36.0938 90.9062L35.875 91.125V91.3125H36.0938L36.2812 90.6875L36.5 90.9062H36.7188L36.5 91.125V91.3125L36.9062 91.75H37.125V91.5312C36.5417 90.2812 36.125 89.6562 35.875 89.6562H35.6562L35.875 89.4375V89.2188L35.4688 88.8125L35.25 89.0312L35.0312 88.8125V88.5938L35.25 87.9688L35.0312 87.75L35.25 87.5625H35.0312L34.625 87.9688ZM12 87.9688V88.4062L12.625 88.5938V88.4062L12 87.9688ZM39.8438 87.9688L39.4375 88.8125V89.8438H39.6562L40.0625 89.0312L39.8438 88.8125L40.2812 87.9688H39.8438ZM40.2812 89.2188C40.6979 89.0938 40.9062 88.6771 40.9062 87.9688C40.4896 88.1146 40.2812 88.5312 40.2812 89.2188ZM41.5312 89.0312L41.75 89.6562L41.5312 90.6875H41.75C42.0208 90.6875 42.1562 90.4062 42.1562 89.8438C42.5729 89.8438 42.7812 89.7083 42.7812 89.4375H42.5625L42.375 89.6562H42.1562V88.5938L41.5312 89.0312ZM36.0938 89.2188L36.2812 89.4375H36.5V88.8125L36.0938 89.2188ZM48.2188 89.0312V89.2188H49.2812L48.8438 88.8125L48.2188 89.0312ZM13.4688 89.4375V89.8438L14.0938 90.0625V89.8438L13.4688 89.4375ZM33.1562 89.6562V90.2812L33.5625 90.6875V90.2812L33.375 90.0625V89.8438L33.5625 89.6562H33.1562ZM15.1562 89.8438L14.9375 90.0625V90.2812L15.5625 90.0625V89.8438H15.1562ZM37.75 90.0625L38.375 90.9062L38.1875 90.0625H37.75ZM6.125 90.6875H6.5625V91.3125H6.125V90.6875ZM11.5938 90.9062V91.125L12.4062 91.3125C12.4062 91.0417 12.1979 90.9062 11.7812 90.9062H11.5938ZM12.625 90.9062V91.3125L13.6875 91.75H13.875V91.5312C13.1875 91.5312 12.8438 91.3229 12.8438 90.9062H12.625ZM47.1875 90.6875H47.8125L47.4062 91.125L47.1875 90.9062V90.6875ZM52.625 90.9062V91.125L53.6875 91.5312V90.9062H52.625ZM2.15625 91.75C2.55208 92.4375 3.11458 92.7812 3.84375 92.7812L2.78125 91.75H2.15625ZM15.5625 91.75L15.7812 92.375H16.1875V92.1562L15.7812 91.75H15.5625ZM42.1562 91.75L41.75 92.7812H41.9375L42.1562 92.5938H42.375V93H42.5625V92.375L42.375 91.75H42.1562ZM36.9062 91.9688L37.125 92.5938L37.5625 92.1562L36.9062 91.9688ZM46.75 91.75H47.8125V92.1562L46.3438 92.7812L46.75 91.75ZM51.375 92.375V92.5938L51.5938 92.7812V93L51.375 93.2188H51.5938C52.2188 92.9479 52.5625 92.6667 52.625 92.375H52.4062L51.5938 92.5938L51.375 92.375ZM8.03125 92.5938L8.21875 92.7812V93L8.03125 93.2188V93.4062H8.4375V92.5938H8.03125ZM37.75 93.2188L37.5625 93C37.7708 93.5625 37.9792 93.8438 38.1875 93.8438V93.625L38.375 93.8438H39.2188L39.4375 93.625C39.6875 93.625 40.1771 94.1146 40.9062 95.0938V94.875L39.4375 92.7812L37.75 93.2188ZM50.125 93.2188V93.4062L50.75 92.7812H50.5312L50.125 93.2188ZM2.375 93V93.4062L3.21875 93.625L3.40625 93.4062V93.2188H3.21875V93.4062L2.375 93ZM12 93V93.625L12.4062 93.2188L12.2188 93H12ZM14.9375 93V93.4062L15.5625 93.2188V93H14.9375ZM49.0625 93.4062V93.625H49.5L49.2812 93.8438V94.0625L49.9062 93.8438V93.625L49.6875 93.4062V93.2188L49.9062 93H49.5L49.0625 93.4062ZM42.5625 93.2188L42.375 93.8438H43L42.7812 93.2188H42.5625ZM10.9375 93.625L10.75 93.8438V94.0625L10.9375 93.8438H11.1562L11.375 94.0625H12V93.8438L10.9375 93.625ZM1.75 93.8438V94.0625L2.375 94.25V93.8438H1.75ZM46.125 94.0625H46.5625V94.4688L45.7188 94.875V94.4688L46.125 94.0625ZM10.9375 95.0938V95.3125H11.5938L11.7812 95.0938V94.875H11.5938L10.9375 95.0938ZM46.3438 94.6875L46.9688 95.5H46.75L45.9375 95.0938L46.3438 94.6875ZM38.8125 95.0938V95.7188H39.2188C39.2188 96.1354 39.3646 96.3438 39.6562 96.3438L39.2188 95.7188L39.4375 95.5V95.0938H38.8125ZM41.0938 95.3125V95.9375H41.5312L41.3125 95.3125H41.0938ZM47.1875 95.3125H47.5938V96.1562L47.1875 95.7188V95.3125ZM48.8438 96.3438V96.5625L49.2812 96.1562V95.9375L48.8438 96.3438ZM9.0625 96.9688L9.28125 96.7812H9.6875L9.5 96.9688V97.1875L9.90625 97.5938H10.125L9.90625 96.1562C9.44792 96.2812 9.16667 96.5521 9.0625 96.9688ZM1.53125 96.3438L1.125 96.9688V97.1875H1.3125L1.75 96.3438H1.53125ZM35.875 96.5625V96.9688H36.2812L36.7188 96.5625V96.3438H36.5L35.875 96.5625ZM48.0312 96.1562L48.2188 96.3438V96.5625L48.0312 96.7812H47.5938V96.5625L48.0312 96.1562ZM49.6875 97.8125L49.9062 97.5938H50.125L50.3125 97.8125H50.5312C51.2396 97.7292 51.5938 97.3125 51.5938 96.5625V96.3438H50.75L49.6875 97.8125ZM34.8125 96.5625V97.4062H35.0312L35.25 96.5625H34.8125ZM39.6562 96.5625L41.3125 99.5L41.9375 99.2812V98.875C41.9375 98.5833 41.7292 98.4375 41.3125 98.4375V98.25L42.1562 97.4062H42.375V97.8125L42.7812 97.4062V96.9688H42.5625L41.75 97.4062L41.5312 97.1875L41.0938 98.25H40.6875L40.4688 96.9688L40.2812 97.1875H40.0625V96.5625H39.6562ZM8.65625 97.4062C8.65625 97.6771 8.44792 97.8125 8.03125 97.8125L7.8125 98.0312V98.4375L8.84375 97.4062H8.65625ZM34.4062 97.5938V97.8125L34.8125 98.25V98.0312L34.4062 97.5938ZM32.7188 98.6562V99.2812H33.1562V98.6562H32.7188ZM39.2188 99.0625C39.2188 99.4792 39.0833 99.6875 38.8125 99.6875V99.9062H39.2188L39.4375 99.6875V99.0625H39.2188ZM35.0312 99.2812L36.2812 100.969H35.4688V101.156C36.0104 101.156 36.2812 101.365 36.2812 101.781L37.125 100.531L36.9062 100.344H36.7188L36.2812 100.75C36.2812 100.125 35.8646 99.6354 35.0312 99.2812ZM40.9062 99.9062V100.344C41.8229 100.344 42.5208 100.969 43 102.219H43.4062L43.2188 102V101.781L43.4062 100.969C43.1354 100.969 43 100.76 43 100.344L42.7812 100.531H42.5625L42.1562 99.6875L41.9375 99.9062H41.75V99.6875L40.9062 99.9062ZM0.90625 100.125V100.344C1.32292 100.344 1.53125 100.615 1.53125 101.156H1.75V100.75L0.90625 100.125ZM49.6875 100.344V100.531L49.9062 100.75H49.6875C49.8333 101.312 50.1146 101.594 50.5312 101.594L50.3125 101.781V102C51.0208 102 51.375 102.208 51.375 102.625H51.7812V102.438L49.6875 100.344ZM38.5938 100.75V101.375L39 100.969L38.8125 100.75H38.5938ZM45.0938 100.75H45.5V100.969L45.0938 101.375V100.75ZM37.125 101.156V101.594H36.9062L37.125 102.844H37.3438L37.5625 101.156H37.125ZM10.9375 101.375V101.594L11.375 102V101.781L10.9375 101.375ZM2.375 101.594L3 102.438C2.79167 101.875 2.58333 101.594 2.375 101.594ZM40.2812 101.594V102L41.0938 102.219V101.781L40.2812 101.594ZM5.71875 101.781L6.125 102.219L6.75 102V102.219C6.75 102.49 7.10417 102.771 7.8125 103.062H8.03125V102.438H7.8125L7.59375 102.625H7.40625V102.219L7.59375 102V101.781H7.40625L6.96875 102.219L6.5625 101.781L6.34375 102L6.125 101.781H5.71875ZM41.75 102.438V102.625L42.1562 102.219V102L41.75 102.438ZM46.9688 102V102.219L47.1875 102.438V102.625H46.9688L46.3438 102.438V103.469H46.125C46.125 103.052 45.9896 102.844 45.7188 102.844H45.3125V103.469H45.9375V103.688H45.3125L44.4688 103.25L44.25 103.469L43.4062 102.625H43.2188L48.4375 110.812V110.375L48.6562 110.594H48.8438V110.188C48.4271 110.188 48.2188 110.042 48.2188 109.75L49.0625 109.531L49.2812 109.75V109.344L49.9062 109.75V109.344C49.3438 108.74 49.0625 108.177 49.0625 107.656L49.2812 107.438L48.6562 106.812V106.625H49.2812L50.125 107.25L50.3125 107.031V107.25L50.125 107.875L50.9375 107.438L51.5938 107.656C51.0312 106.51 50.75 105.677 50.75 105.156H50.9375L52 106H52.2188V105.781L51.375 103.875L51.5938 103.688H52L52.625 104.094L52.8438 103.875V103.688L52 103.469V103.25L52.2188 103.062V102.844H51.7812L51.5938 103.062L50.3125 102.625H50.125L50.3125 102.844V103.062H49.5L48.8438 102.625H48.6562L48.8438 102.844V103.25H48.4375C47.75 103.021 47.4062 102.604 47.4062 102H46.9688ZM3.40625 102.625V102.844L4.25 103.688C3.97917 103.042 3.69792 102.688 3.40625 102.625ZM32.5312 102.625V103.469H32.7188V102.625H32.5312ZM6.5625 102.844V103.062L7.1875 103.25V103.062L6.96875 102.844H6.5625ZM31.4688 103.062L31.2812 103.688L31.4688 103.875H31.6875V103.062H31.4688ZM10.9375 103.25V103.469L11.375 103.875V103.688L10.9375 103.25ZM0.0625 103.25L1.75 104.938H1.125L0.0625 103.688V103.25ZM50.125 103.25V103.469L50.3125 103.25H50.75C50.75 103.958 50.8854 104.312 51.1562 104.312L50.9375 104.938H50.75L49.6875 103.469L49.9062 103.25H50.125ZM4.65625 103.875L5.09375 104.938H4.65625V105.156H4.875L5.09375 104.938H5.3125L5.9375 105.156L4.65625 103.875ZM46.9688 103.875L47.4062 104.312V104.531L46.9688 104.094V103.875ZM48.0312 104.094C49.0104 104.24 49.5 104.521 49.5 104.938L49.2812 105.156H48.4375L48.0312 104.094ZM50.125 104.719L50.3125 104.938V105.562L49.6875 105.344V105.156L50.125 104.719ZM0.28125 104.938H0.46875L1.3125 105.781L0.6875 106.188L0.28125 104.938ZM1.75 105.156H1.9375L2.5625 105.781V106C2.02083 105.771 1.75 105.552 1.75 105.344V105.156ZM6.125 105.562V105.781L7.40625 106.625V106L6.34375 105.562H6.125ZM46.125 105.344H46.3438L46.75 105.781V106.188L46.125 105.562V105.344ZM50.3125 105.781H50.5312V106.406L49.9062 106.188L50.3125 105.781ZM0.0625 106C0.333333 106 0.46875 106.271 0.46875 106.812C0.90625 106.812 1.125 106.958 1.125 107.25H0.6875L0.0625 106.625V106ZM0.90625 106.188H1.3125L1.75 107.031H1.53125L0.90625 106.812V106.188ZM35.4688 106.625V107.25L35.6562 107.031L35.875 107.25H36.2812V107.031H35.875V106.812L36.0938 106.625V106.406L35.4688 106.625ZM47.8125 106.406V106.625L47.1875 106.812L46.9688 106.625L46.5625 107.031L46.3438 106.812V106.625L46.5625 106.406H47.8125ZM7.8125 107.031V107.25L8.4375 107.656V107.438L7.8125 107.031ZM30 107.875L30.4375 108.281V108.094L30.2188 107.875H30.625V107.438H30.4375L30 107.875ZM46.9688 107.25H47.1875C48.0208 107.375 48.4375 107.583 48.4375 107.875L48.2188 108.094V108.281C47.6771 108.281 47.2604 107.938 46.9688 107.25ZM32.3125 107.875L32.0938 108.094V108.281L33.375 108.906L32.3125 107.875ZM37.5625 107.875L37.9688 108.281H38.1875L37.75 107.875H37.5625ZM8.84375 108.094V108.281L9.5 108.719V108.5L8.84375 108.094ZM28.75 108.906L28.3438 109.531V109.75H28.5312L28.9688 108.906H28.75ZM48.0312 108.906H48.8438V109.125L48.2188 109.344L48.0312 109.125V108.906ZM36.5 109.344L36.9062 109.75H37.125L36.7188 109.344H36.5ZM11.5938 109.531V110.188H12L11.7812 109.531H11.5938ZM30.2188 110.812L29.8125 111.219L30.2188 111.625L30.625 111.219V110.812H30.2188ZM47.4062 111.219V111.625H47.8125L48.0312 110.812H47.8125L47.4062 111.219ZM36.0938 111.625L35.875 111.844V112.281L36.5 112.062L36.0938 111.625ZM51.1562 111.625V112.062L52 113.531H52.4062V112.906C51.9896 112.906 51.7812 112.698 51.7812 112.281H51.375L51.5938 112.062V111.844L51.375 111.625H51.1562ZM27.7188 112.281L28.125 112.688H28.3438L27.9062 112.281H27.7188ZM30.2188 112.281C30.2188 112.594 29.875 113.073 29.1875 113.719V113.938H29.8125V113.531H30L30.2188 113.719H30.4375L30.625 112.281H30.2188ZM25.8125 113.094L25.625 113.938L26.25 113.312L26.0312 113.094H25.8125ZM9.6875 113.312V113.531L9.90625 113.719V113.938L9.6875 114.156L10.75 114.781L10.5312 115V115.406L10.75 115.188H11.1562L12 115.812V115.625L10.5312 114.156L10.75 113.938H10.5312L10.3125 114.156L10.125 113.312H9.6875ZM33.7812 113.312L34.1875 113.719L34.4062 113.531V113.312H33.7812ZM53.875 113.531V114.156L54.3125 113.719L54.0938 113.531H53.875ZM10.9375 113.719L12 114.781V114.562C11.7292 114.562 11.5938 114.354 11.5938 113.938L11.375 113.719H10.9375ZM46.5625 113.719V113.938H46.9688C46.9688 114.354 47.1146 114.562 47.4062 114.562L47.5938 114.375V114.781L47.8125 114.562H48.0312C48.0312 114.979 48.3021 115.188 48.8438 115.188H49.0625V115H48.6562V114.781H49.0625V114.562L48.2188 114.375L48.0312 114.562C48.0312 114.25 47.6042 113.969 46.75 113.719H46.5625ZM29.5938 114.156V114.562L28.5312 114.375C28.5312 114.646 28.1875 114.781 27.5 114.781L27.9062 115.188H28.125L28.3438 115H28.5312C28.7396 115.542 28.9583 115.812 29.1875 115.812C29.1875 115.271 29.3229 115 29.5938 115L29.8125 115.188V115.625C29.8125 115.938 29.4583 116.146 28.75 116.25L28.125 116.031V116.25L27.9062 117.281L26.4375 117.094V117.281L26.875 118.125L26.6562 118.344V118.75H26.875C26.875 118.292 27.2188 117.948 27.9062 117.719L28.125 117.906L27.9062 118.125V118.562H28.125V118.125L29.375 118.562V118.125H28.9688V117.719H29.375C29.6875 117.719 29.8958 118.062 30 118.75L29.375 119.375L29.5938 119.594L29.8125 119.375H30L30.625 120.031L29.5938 120.219V120.438L29.8125 120.656V120.844C29.2917 120.844 28.8646 121.198 28.5312 121.906H28.125L27.9062 122.125L27.7188 121.906V121.281C26.9479 121.552 26.4583 121.969 26.25 122.531L26.4375 122.75L26.6562 122.531H27.0625L27.5 122.938H26.875V123.156L27.5 124V124.219C26.9375 124.219 26.5208 124.917 26.25 126.312L26.6562 125.875L26.875 126.094H27.2812L26.875 125.469L27.5 124.219L27.7188 124.406H27.9062V124H28.125L28.75 124.406C28.75 123.844 28.8958 123.562 29.1875 123.562C29.6042 123.562 29.8125 123.427 29.8125 123.156L30.4375 123.781C29.6042 123.927 29.1875 124.281 29.1875 124.844L29.375 125.469H29.8125V125.031H29.375L30.2188 124.219H30.4375V124.406L30.2188 124.625C30.2188 125.458 30.7083 125.875 31.6875 125.875V126.094L30.4375 127.562V127.969L30.8438 128.406V128.188L30.625 127.344H31.0625L31.2812 127.562H31.4688L31.9062 127.125L31.6875 126.938V126.312L31.9062 126.5H32.5312V125.875L32.9375 126.312L32.7188 126.5V126.719L33.375 126.5V126.312L32.5312 125.25V125.031H33.1562L33.375 125.25L33.5625 125.031H34V125.469C34.6875 125.469 35.1042 125.188 35.25 124.625H35.0312L34.4062 125.031L34.1875 123.781H34L33.1562 123.375L32.5312 123.562V122.312C33.0938 122.312 33.375 122.177 33.375 121.906L33.1562 121.688L33.5625 120.844H33.375L33.1562 121.062H32.9375L31.0625 120.438L31.2812 120.219V120.031L32.0938 120.438L32.3125 120.219V120.031L32.0938 119.812V119.594H32.7188V119.188L32.0938 119.375L31.4688 119.188V118.969L31.6875 118.75L31.2812 117.281V117.094H31.4688V117.5L32.0938 117.281V117.094L31.9062 116.875V116.656L31.0625 117.094V116.875C31.0625 116.604 31.2708 116.469 31.6875 116.469V116.25L31.4688 116.031V115.812H31.9062L32.5312 116.25V116.031C31.4479 115.052 30.6042 114.562 30 114.562V114.156H29.5938ZM45.7188 115V115.188H46.125V114.562L45.7188 115ZM50.9375 114.562V114.781L51.5938 116.25C52.8438 117.979 53.4688 119.021 53.4688 119.375H53.6875L54.0938 118.969L53.0312 117.719L53.25 117.5L53.0312 117.281H53.25L53.875 117.5L53.25 116.875H53.0312V117.281H52.8438C52.8438 116.51 52.3542 115.812 51.375 115.188C51.375 114.771 51.2292 114.562 50.9375 114.562ZM49.2812 114.781L49.5 115.406L49.9062 115V114.781H49.2812ZM9.5 115.406V115.625C9.77083 115.625 9.90625 115.833 9.90625 116.25H10.125V115.625L9.5 115.406ZM45.3125 115.406V115.812L45.5 116.469L43 118.344L42.7812 118.125H42.375L43 118.75H43.2188C43.3021 118.188 43.6458 117.906 44.25 117.906L44.4688 117.719L44.6562 117.906V118.125H44.875V117.906L44.6562 117.281L45.9375 116.25V116.031L45.3125 115.406ZM30.2188 115.625H30.8438V116.031H30.2188V115.625ZM33.5625 116.031L33.375 116.25V116.469L34.625 116.875V116.656L34.4062 116.031L34.1875 116.25H34L33.7812 116.031H33.5625ZM8.03125 116.469V116.656L8.21875 116.875L8.03125 117.094V117.281C8.11458 118.135 8.32292 118.562 8.65625 118.562H8.84375C8.84375 118.271 9.0625 118.125 9.5 118.125V117.5H9.28125V117.906H8.84375V117.719L9.28125 117.281C9.07292 116.74 8.86458 116.469 8.65625 116.469H8.03125ZM29.1875 116.469L29.5938 117.094L29.375 117.281H28.5312V116.656L29.1875 116.469ZM6.96875 117.906C6.96875 118.302 6.76042 118.729 6.34375 119.188V119.375H6.96875L6.75 119.594V119.812L6.96875 120.031H7.1875L7.59375 119.594L7.40625 119.375L7.59375 119.188H7.8125L8.03125 119.375V118.75L7.8125 118.969H7.59375C7.32292 118.969 7.1875 118.615 7.1875 117.906H6.96875ZM34.8125 118.562H34.1875V118.75C34.1875 119.042 34.4688 119.188 35.0312 119.188V119.375C34.7396 119.938 34.3958 120.219 34 120.219V120.656H34.4062C34.4062 120.24 34.5417 120.031 34.8125 120.031H35.0312C35.3229 120.031 35.4688 120.375 35.4688 121.062H36.2812V120.844C36.0104 120.302 35.6667 120.031 35.25 120.031V119.812L36.0938 118.75L35.875 118.562V118.344L34.8125 118.562ZM1.75 118.562L1.3125 119.188L1.53125 119.375H1.75L1.9375 118.562H1.75ZM43.2188 118.969L44.0312 119.812V119.594L43.4062 118.969H43.2188ZM27.2812 119.188L27.0625 119.375V119.812H27.2812L27.5 119.188H27.2812ZM28.3438 120.031H28.75L28.9688 119.188L28.3438 120.031ZM41.5312 119.188L41.9375 119.594L42.1562 119.375V119.188H41.5312ZM5.9375 119.812L5.5 120.844L5.9375 121.688L5.71875 121.906L5.9375 122.125H6.125L6.34375 121.469L6.125 120.438H6.5625L6.75 120.656H6.96875V120.438L6.125 119.812H5.9375ZM41.5312 120.031V120.656L42.375 120.438V120.219H41.9375L42.1562 120.031V119.812L41.5312 120.031ZM24.7812 120.656L24.3438 121.281V121.469C25.0104 121.469 25.5 121.688 25.8125 122.125H26.0312L26.4375 120.844H26.25L25.625 121.281L24.7812 120.656ZM33.7812 121.469V121.688L34.1875 121.281V121.062L33.7812 121.469ZM29.8125 121.062C30.3542 121.542 30.625 121.958 30.625 122.312L30.4375 122.531C29.3125 122.385 28.75 122.177 28.75 121.906L29.8125 121.062ZM4.875 121.688V122.125L5.09375 122.75H5.71875L5.09375 121.688H4.875ZM4.25 122.125L2.78125 124.219V124.406C2.78125 124.74 3.40625 125.021 4.65625 125.25H4.875V125.031C4.02083 125.031 3.53125 124.688 3.40625 124L3.625 123.781H3.84375L4.03125 124V124.219L3.84375 124.406H4.03125L4.25 124.219H4.46875L5.09375 124.844V124.625L4.875 124L5.09375 123.375L5.71875 124H5.5C5.70833 124.562 5.91667 124.844 6.125 124.844L6.5625 123.781C6.14583 123.781 5.375 123.229 4.25 122.125ZM9.90625 123.375L9.6875 124.219L10.125 124.625L10.75 124.406L10.9375 124.625H11.375V124.406C10.9583 124.406 10.75 124.198 10.75 123.781L10.5312 123.562H10.3125V124H10.125V123.375H9.90625ZM30.8438 124.625H31.0625L31.6875 124.844V125.25C31.125 125.042 30.8438 124.833 30.8438 124.625ZM2.5625 125.25V125.656C3.125 125.656 3.40625 125.802 3.40625 126.094V126.312H3L2.78125 126.094H2.5625V126.312L3.625 126.719V127.125L3.40625 127.344V127.562L4.46875 127.969C4.46875 127.552 4.60417 127.344 4.875 127.344C4.875 127.719 5.22917 128 5.9375 128.188L5.5 127.125H5.71875C5.71875 126.708 5.36458 126.5 4.65625 126.5V126.094H5.09375V125.875H4.875L4.03125 126.094L2.5625 125.25ZM30 125.656L29.8125 125.875V126.094L30.4375 126.312V126.094L30 125.656ZM45.3125 126.312C45.8542 126.083 46.125 125.865 46.125 125.656L45.3125 126.312ZM1.3125 126.094L1.75 126.5H1.9375L1.53125 126.094H1.3125ZM27.5 126.5L28.3438 127.344H28.5312L27.7188 126.5H27.5ZM33.5625 126.938L34.1875 127.562L34 126.938H33.5625ZM1.3125 127.562L1.9375 128.406L1.75 128.594H1.9375L2.15625 128.406H2.375C2.375 128.906 2.92708 129.458 4.03125 130.062V130.5L3.84375 130.688V130.906L4.875 131.125V130.906C4.3125 130.115 4.03125 129.49 4.03125 129.031L3.84375 129.219H3.21875C2.92708 129.219 2.70833 128.729 2.5625 127.75H2.15625L1.9375 127.969H1.75V127.562H1.3125ZM44.875 127.562L44.6562 128.188V128.406H44.875L45.0938 127.75V127.562H44.875ZM26.4375 127.75V128.406L26.875 127.969V127.75H26.4375ZM28.9688 127.75V127.969L29.5938 129.031L30.2188 128.188L28.9688 127.75ZM42.5625 127.75V128.188L43.2188 127.969V127.75H42.5625ZM3.21875 127.969V128.406L3.84375 128.594V128.406L3.40625 127.969H3.21875ZM4.46875 128.188L4.25 128.812C4.33333 129.375 4.89583 129.656 5.9375 129.656C5.41667 128.823 4.92708 128.333 4.46875 128.188ZM28.3438 128.812V129.031L28.75 128.594V128.406L28.3438 128.812ZM0.0625 128.406C0.708333 128.865 1.27083 129.562 1.75 130.5L1.53125 130.688V131.312H1.75C1.75 130.771 1.88542 130.5 2.15625 130.5L2.375 130.688V131.312C1.95833 131.312 1.75 131.458 1.75 131.75C1.75 132.021 2.09375 132.156 2.78125 132.156L3 133H2.78125C1.11458 132.896 0.28125 132.542 0.28125 131.938L0.46875 131.312H0.0625L0.28125 131.125L0.0625 130.062V128.406ZM33.5625 128.594L33.1562 129.844H33.375C33.375 129.573 33.6458 129.438 34.1875 129.438V128.812L33.5625 128.594ZM48.4375 130.5V130.688L49.0625 130.906L49.5 130.281V129.844H49.0625L48.4375 130.5ZM10.125 130.062V130.281L10.3125 130.5V130.688L10.5312 130.5H10.9375V130.906H10.5312V131.531H10.75C10.75 131.26 10.9583 131.125 11.375 131.125V130.906C11.0833 130.344 10.6667 130.062 10.125 130.062ZM27.5 130.062L27.0625 131.125H27.5C27.5 130.708 27.6354 130.5 27.9062 130.5L27.5 130.062ZM49.5 131.125C49.5 131.375 50.1979 131.646 51.5938 131.938V131.75L50.5312 130.281H50.3125L49.5 131.125ZM43.2188 130.688V131.125L43.625 131.531H43.8438L44.25 131.125V130.906L43.2188 130.688ZM45.0938 131.312L46.125 131.75L46.3438 131.531V130.688H45.7188L45.0938 131.312ZM12.625 130.906L12.4062 131.125L12.625 131.938H12.8438L13.0312 131.125L12.8438 130.906H12.625ZM48.2188 131.75H48.8438V131.312H48.6562L48.2188 131.75ZM30.2188 131.531V131.75L30.8438 132.156V131.75L30.2188 131.531ZM3 131.938H3.625L4.46875 132.781V133H3.84375L3 132.594V131.938ZM78.2812 76.625H79.75L79.9688 76.8438L80.1875 76.625H82.0938C82.1146 77.1875 82.25 77.4688 82.5 77.4688L82.2812 77.6875V78.0938C82.7188 78.0938 82.9375 78.2396 82.9375 78.5312V78.9375H82.0938C82.0938 79.2292 82.5104 79.375 83.3438 79.375L83.7812 80.4375C83.4271 81.4167 83 81.9062 82.5 81.9062V82.125C82.9167 82.125 83.125 82.3333 83.125 82.75V82.9688H83.3438C83.3438 82.6771 83.625 82.5312 84.1875 82.5312L84.4062 82.3125V82.125L83.9688 81.6875V81.2812H84.4062V81.6875H84.8125V80.625L84.625 80.4375L84.8125 80.2188V79.7812L84.4062 79.375V79.5938L84.625 79.7812H84.1875L83.7812 78.3125H83.9688L83.3438 76.625H88V77.0625L88.625 76.625H88.8438L88.625 76.8438V77.0625L89.0312 77.4688L89.25 77.25V77.6875L88.8438 78.3125V78.5312H89.0312V78.0938L89.25 78.3125H89.4688L89.6875 78.0938L89.9062 78.3125C89.9062 77.75 90.0417 77.4688 90.3125 77.4688L92 80.2188V80.625L91.7812 80.8438V81.0625L93.4688 82.5312L92.8438 80.625C92.1146 80.2708 91.4167 79.0104 90.75 76.8438V76.625C91.8542 76.625 92.7604 78.1771 93.4688 81.2812L94.5312 84V84.2188H94.3125C94.0417 83.2396 93.7604 82.75 93.4688 82.75C93.8021 83.7292 94.0833 84.2188 94.3125 84.2188L94.125 84.4375V84.875L94.75 85.0625L94.9688 84.875L97.0625 91.4062C96.5 91.4062 95.8646 90.2812 95.1562 88.0312L95.375 87.8125C94.9583 87.7083 94.3958 86.8646 93.6875 85.2812L93.2812 84.875L93.6875 84.4375L93.9062 84.6562V84.4375C93.0729 84.4375 92.4375 83.7292 92 82.3125L91.5938 81.9062L91.7812 81.6875V81.4688L91.375 81.0625L91.1562 81.2812L90.9375 79.5938H90.75L90.5312 79.7812H90.3125L90.0938 79.5938C90.0938 80.1562 89.8854 80.4375 89.4688 80.4375C89.4688 80.7083 89.6771 80.8438 90.0938 80.8438L89.9062 81.0625V81.4688L90.0938 81.2812H90.3125L93.9062 87.8125V89.2812H94.3125V89.5L94.125 89.7188V89.9375L94.75 90.125V90.3438L94.5312 91.1875L94.9688 92.25L94.75 93.0938L95.1562 93.5312V93.9375L94.5312 93.5312L94.3125 93.7188V94.1562H94.75L94.5312 95.2188H95.1562V95.4062C94.5938 95.4062 94.3125 95.5521 94.3125 95.8438L93.6875 96.25L92.8438 96.0625L93.0625 96.25V96.4688L92.8438 96.6875V96.9062L91.7812 96.4688L92 96.25V96.0625L91.5938 95.625L90.9375 97.3125L91.5938 97.5312L90.5312 98.375L90.0938 99.8438L90.3125 99.625H90.5312L90.75 99.8438L90.9375 99.625L91.1562 100.688L90.9375 100.469H90.75C90.6667 101.052 90.4479 101.344 90.0938 101.344L90.75 101.969H90.9375V101.75L90.75 101.125L90.9375 100.906H91.375L91.1562 101.125L91.375 101.344V102.188H90.9375L91.375 102.594V102.375L91.5938 102.594H92.2188L92 102.375V101.969H92.4375L92.625 101.75L92.8438 101.969V102.188H93.0625C93.0625 101.333 93.3438 100.906 93.9062 100.906L93.6875 100.688V100.469L93.9062 100.281L93.6875 100.062H93.4688L93.2812 100.281H93.0625V99.8438H93.6875L93.2812 98.375C93.6979 98.375 93.9062 98.2292 93.9062 97.9375L93.4688 97.5312H93.9062C93.9062 96.9688 94.4688 96.6875 95.5938 96.6875L95.375 96.4688V96.25C95.7917 96.25 96 96.0417 96 95.625H96.4375C96.4375 95.2083 96.1562 95 95.5938 95L95.1562 94.1562C95.4479 94.1562 95.5938 93.8021 95.5938 93.0938L96.6562 92.25C96.8438 92.9167 97.2604 93.4062 97.9062 93.7188L99.1875 97.0938L98.9688 97.3125C99.2604 97.3125 99.5417 97.9479 99.8125 99.2188L98.75 99.4375C98.9792 100.125 99.4792 100.469 100.25 100.469L100.031 100.688V100.906H100.25L100.438 100.688V101.531L99.4062 101.75V101.969C99.8229 101.969 100.031 102.177 100.031 102.594L99.8125 102.812H99.5938L98.5625 102.375C98.5625 102.667 99.1875 103.021 100.438 103.438C100.583 104.646 100.865 105.354 101.281 105.562L101.5 104.906L101.094 103.656C101.51 103.656 101.792 104.219 101.938 105.344H101.5C102.625 106.802 103.615 109.198 104.469 112.531L103.625 111.875L103.406 112.094L102.344 110.844V110.406L103.406 110.188V110L102.562 109.344L102.344 109.562C102.344 109.104 101.99 108.396 101.281 107.438H100.656C101.51 108.542 101.938 109.323 101.938 109.781L101.719 109.562H101.281L101.5 110.625H101.281C100.448 110.333 100.031 109.906 100.031 109.344H99.1875L99.4062 109.156V108.938L99.1875 108.719C98.3333 108.385 97.9062 107.958 97.9062 107.438L97.7188 107.656H97.5L95.375 106.406V106.594L95.5938 106.812H94.9688L94.125 106.188L93.9062 106.812L94.3125 107.25V107.656H93.9062V108.281H94.3125V108.719L94.5312 110.188C94.2604 110.188 93.9792 110.542 93.6875 111.25V111.688C94.1042 112 94.3125 112.49 94.3125 113.156C95.0208 113.156 95.4479 113.51 95.5938 114.219C96.0938 115.052 96.5833 115.469 97.0625 115.469V115.688H96.6562V116.312L96.8438 116.094H97.0625L97.2812 116.312V115.469L97.0625 115.25V115.062H97.7188V114.625C97.3854 114.625 97.0312 114.344 96.6562 113.781L96 113.562L95.8125 113.781L95.5938 113.562L96 112.719L97.7188 114H97.9062L96.6562 112.094L97.2812 111.469C96.8646 111.469 96.6562 111.323 96.6562 111.031L97.7188 110.406L97.2812 109.562L97.5 109.344V109.156L97.2812 108.938V108.719H97.5L99.4062 109.781L99.1875 110V112.312L100.875 112.094H101.094V112.312H100.656V112.531L100.875 113.562H101.281L101.094 112.531V112.312L101.938 113.781H102.344V113.156H101.938V112.719L102.125 112.938H102.562L102.781 112.719H102.969C103.531 113.198 103.812 113.906 103.812 114.844C104.188 114.844 104.688 115.198 105.312 115.906V116.75C104.604 116.75 104.25 117.031 104.25 117.594H103.812V117.156H103.625V117.594H103.406L103.812 119.281H104.25C104.25 118.844 104.604 118.417 105.312 118L105.938 118.219V118L106.156 117.156H106.375L108.688 124.344L108.469 124.125H107.844V124.75L108.25 125.812L108.906 125.406C109.281 125.406 109.562 126.104 109.75 127.5L108.906 127.094V127.938L109.75 128.781H109.938V128.156H110.156L111.219 131.531V131.938C110.865 132.646 110.302 133 109.531 133H97.0625C96.4375 133 95.2396 129.625 93.4688 122.875L93.2812 122.031H92.625L93.0625 121.375L91.7812 119.688L92 119.5V119.062L91.7812 118.844V118.656L92.8438 118.438C92.8438 118.083 92.5625 117.875 92 117.812L92.2188 117.594V117.375H91.7812V117.156L91.1562 117.375C91.1562 117.667 91.3646 117.812 91.7812 117.812V118.438H91.375L90.9375 118V116.531L92 116.312L92.625 117.594L93.4688 117.156H93.6875V117.375H93.2812L93.4688 118H93.6875V117.375H94.5312V118H94.3125L94.125 117.812H93.9062V118C93.9062 118.208 94.1875 118.427 94.75 118.656V119.062L94.9688 118.844H95.375V119.281L95.5938 119.5L95.375 119.688H94.9688L95.1562 120.75H95.375V120.125H95.8125V120.531H96.4375L95.8125 119.5L96 118.844H95.8125L95.5938 118.219L95.375 118.438H94.9688V117.812C96.3229 118.188 97.2396 118.604 97.7188 119.062V118.844L97.9062 119.062H98.3438V118.844L96.8438 117.594L96.6562 117.812H96.4375C95.5833 117.521 95.1562 117.167 95.1562 116.75L94.9688 116.969H94.3125L93.4688 116.312L93.6875 115.688L93.4688 115.906H93.0625L94.3125 113.562V113.375L94.125 113.562H92.2188V114L92.8438 114.844C92.5104 115.677 92.2292 116.094 92 116.094C91.3333 116.094 90.8438 115.677 90.5312 114.844H90.3125V114.625C90.3125 114.354 90.5938 114.219 91.1562 114.219L91.375 113.375H90.9375C91.2292 111.167 91.5104 109.896 91.7812 109.562C91.7188 109.271 91.375 108.99 90.75 108.719L90.9375 108.5V108.281L90.75 107.438C90.75 106.604 91.2396 106.188 92.2188 106.188V105.75H92.4375L92.2188 105.562V104.906L93.0625 103.219C93.625 103.01 93.9062 102.802 93.9062 102.594L93.6875 102.375H93.0625C93.0625 102.812 92.8542 103.031 92.4375 103.031L91.1562 104.5H90.0938C90.0938 103.938 89.9583 103.656 89.6875 103.656L89.25 104.062C89 104.354 88.6458 104.5 88.1875 104.5L88 105.562L89.0312 105.344L88.8438 105.125V104.719L89.9062 105.344H90.0938V105.969C89.8229 105.969 89.6875 106.323 89.6875 107.031L88.625 107.25L88.4062 107.031V107.438C88.1354 107.438 86.875 103.5 84.625 95.625L84.8125 95.4062L84.4062 95H84.1875L79.5312 109.781H79.75L81.0312 110V110.188H80.5938V110.406C81.1562 110.406 81.4375 110.552 81.4375 110.844C81.875 110.844 82.0938 110.562 82.0938 110H82.2812L82.7188 110.406L82.2812 110.844H83.125V110.406H83.7812L83.9688 110.625H84.1875C84.1875 111.188 83.8333 111.469 83.125 111.469V111.688L83.5625 112.531L82.7188 114.219V114.406H82.9375L84.1875 114H85.0312L84.8125 112.938V112.719C85.1458 111.74 85.7083 111.25 86.5 111.25C86.5 110.75 86.8542 110.333 87.5625 110H88.1875C88.4792 110 88.625 110.208 88.625 110.625L86.7188 113.156L86.9375 113.375L86.5 114.844H86.9375L87.1562 114.625H87.3438L87.5625 114.844V115.062C86.9583 116.333 86.4688 116.969 86.0938 116.969L85.6562 116.531H85.25V116.969L85.6562 118H85.875V117.594H86.0938L86.3125 118.219L85.6562 119.062C85.6562 118.5 85.5208 118.219 85.25 118.219H85.0312V118.438L85.25 119.062H85.6562V119.281L85.4688 119.5V119.688L86.0938 120.125H86.3125L87.3438 119.062L88 119.281C88 118.99 88.2083 118.844 88.625 118.844L89.25 119.062C89.25 118.792 89.0417 118.656 88.625 118.656L88.4062 118.438V118.219L88.625 118C89.3333 118 89.6875 118.562 89.6875 119.688V120.125L89.9062 119.906L90.5312 120.125V120.969C89.7812 120.969 89.0729 121.323 88.4062 122.031H85.4688V121.594C86.0312 121.594 86.3125 121.385 86.3125 120.969L86.0938 120.75C85.2396 120.896 84.8125 121.323 84.8125 122.031H77.6562V121.594H77.2188V122.031H75.5312C75.1354 123.427 74.7188 124.125 74.2812 124.125L74.4688 124.344V125.406L73.8438 124.969L73.4062 126.25H73.625L74.0625 125.812V126.25C72.7292 130.75 71.7396 133 71.0938 133H69.8438V132.781L71.0938 131.531V131.312C70.9479 130.896 70.5312 130.688 69.8438 130.688C69.8438 130.958 69.625 131.094 69.1875 131.094V131.938H69.4062L69.625 131.094L70.0312 131.531L69.8438 131.719L70.0312 131.938V132.375H69.8438L69.1875 132.156V132.375L68.7812 132.781V132.562L69 132.375V131.938H68.7812C68.7812 132.229 68.5 132.375 67.9375 132.375V133H66.875L66.6562 132.781H66.4688L66.25 133C66.25 132.583 66.1042 132.375 65.8125 132.375L65.625 132.562L65.1875 132.156L64.5625 132.781L64.75 133H64.5625C63.8542 132.604 63.5 132.177 63.5 131.719L63.2812 131.938H63.0625C62.375 130.938 62.0312 130.167 62.0312 129.625L61.375 130.031C60.6667 129.052 60.0417 128.562 59.5 128.562V129C59.9792 129 60.6042 129.698 61.375 131.094L61.1875 131.312V131.938H61.375C61.375 131.375 61.5208 131.094 61.8125 131.094H62.0312V131.938C61.5938 131.938 61.375 132.083 61.375 132.375C61.375 132.646 61.7292 132.781 62.4375 132.781V133H61.1875L60.9688 132.781L60.75 133H58.4375C57.7292 132.604 57.375 132.042 57.375 131.312L65.1875 109.344H65.4062L67.5 111.25V110.844L65.4062 108.938L66.25 106.406L67.0938 107.031V106.406H66.4688C66.4688 105.594 66.8125 104.604 67.5 103.438H67.7188V102.594C67.7396 101.698 68.1667 100.99 69 100.469C69.2083 99.9062 69.4167 99.625 69.625 99.625L69.8438 99.8438H70.0312C70.0312 99.4271 70.25 99.2188 70.6875 99.2188V99L70.25 98.375C70.9375 98.375 71.7812 97.6042 72.7812 96.0625C73.5938 96.1458 74.2292 96.3542 74.6875 96.6875L75.5312 96.4688L77 96.6875V96.4688L76.8125 96.25V96.0625L75.75 96.25H75.3125L74.0625 95.8438V95.4062L73.8438 95.625H73.625L73.4062 95.4062V95.2188L74.4688 95V94.7812L74.2812 94.5625V94.375L75.3125 93.3125L74.2812 92.6562H73.8438L74.0625 92.875V93.0938H73.4062C73.4062 93.3854 73.7604 93.5312 74.4688 93.5312V93.7188C74.4062 94.0104 74.0521 94.2917 73.4062 94.5625L73.2188 94.375V94.5625L73.4062 95.2188C72.2812 95.9688 71.7188 96.5312 71.7188 96.9062L71.5312 96.6875L70.875 96.9062C70.4167 96.7604 70.1354 96.4792 70.0312 96.0625C71.0312 95.8125 71.5312 95.5312 71.5312 95.2188H71.3125L70.6875 95.4062L70.875 95.2188V95H70.4688V94.7812L70.875 94.1562L71.9375 94.7812H72.1562V94.5625H71.7188C71.7188 94.2917 71.5104 94.1562 71.0938 94.1562L70.875 93.9375V93.7188L71.0938 92.6562L71.3125 92.875H71.5312L71.3125 92.25L71.5312 91.625C72.5104 91.875 73 92.1562 73 92.4688L71.5312 93.5312V93.7188L71.7188 93.9375H72.375C72.7083 92.6667 73.4792 92.0312 74.6875 92.0312V91.8125H74.2812V91.4062H74.4688L74.6875 91.625H74.9062L75.5312 89.7188L75.3125 89.5H74.6875V89.7188L74.9062 89.9375V90.125L74.0625 90.3438L73.625 89.7188C74.3333 89.7188 74.8958 89.4375 75.3125 88.875C74.4583 88.875 73.8229 88.5938 73.4062 88.0312V88.25L73.625 88.875L73.4062 88.6562H73.2188L73.4062 88.875V89.5L73.2188 89.2812H72.7812L73 90.5625L73.2188 90.3438H73.4062L73.8438 91.4062L73.625 91.625L72.7812 91.4062L73 91.1875V90.7812H72.7812V91.1875H71.7188C73.3438 86.0417 74.6146 83.0833 75.5312 82.3125L75.125 81.9062L75.3125 80.8438H75.5312V81.2812H75.75L75.9688 80.625H75.75L75.5312 80.8438V80.4375C75.5312 80 75.8854 79.7812 76.5938 79.7812V79.5938C76.1771 79.5938 75.9688 79.4479 75.9688 79.1562L76.8125 78.0938L76.5938 77.9062V77.6875C76.9479 76.9792 77.5104 76.625 78.2812 76.625ZM79.3438 78.3125L77.2188 80.4375H77V80H76.8125V80.2188L77 80.8438H76.8125L76.375 81.4688C76.6667 81.4688 77.375 80.7708 78.5 79.375L79.75 78.5312V78.3125H79.3438ZM76.375 78.75L76.8125 79.5938H77V78.75H76.375ZM81.2188 82.3125V82.9688L81.4375 83.1562L81.0312 83.5938V83.8125L82.0938 82.9688V82.5312L81.875 82.75H81.4375V82.3125H81.2188ZM86.0938 84C86.4271 84.8542 86.7083 85.2812 86.9375 85.2812V85.0625C86.6667 84.4167 86.3854 84.0625 86.0938 84ZM79.125 84.2188V84.4375C79.5417 84.4375 79.75 84.5833 79.75 84.875L79.3438 85.5V85.7188H80.1875L79.9688 85.5V85.2812C79.9688 85.0104 80.1771 84.875 80.5938 84.875L80.8125 84.6562V84.2188H79.125ZM83.9688 85.0625V85.2812L85.25 85.7188V85.2812L83.9688 85.0625ZM80.1875 87.5938H80.375L82.0938 85.9062V85.7188H81.875L80.1875 87.5938ZM87.1562 85.7188V86.3438H87.5625L87.3438 85.7188H87.1562ZM87.5625 86.5625V86.9688C87.8542 86.9688 88 87.1771 88 87.5938H88.1875V87.1875C87.9167 87.1875 87.7812 86.9792 87.7812 86.5625H87.5625ZM88.4062 87.8125V88.4375C88.8229 88.5833 89.0312 89.0104 89.0312 89.7188H89.4688L88.625 87.8125H88.4062ZM78.9062 88.6562V89.2812L79.5312 88.6562V88.4375L78.9062 88.6562ZM84.625 89.7188V89.9375L85.6562 90.3438H86.0938V89.9375L84.8125 89.7188H84.625ZM79.75 90.7812V91.4062L80.1875 90.9688V90.7812H79.75ZM89.9062 90.7812L90.0938 91.4062L90.5312 90.9688L89.9062 90.7812ZM75.3125 92.0312L75.5312 92.6562H75.9688V92.25L75.3125 92.0312ZM85.4688 93.5312V93.9375L85.875 94.375V93.9375L85.4688 93.5312ZM77.6562 94.1562L78.0625 95.2188H77V95.8438L77.2188 95.625H77.4375L77.6562 95.8438H77.8438V95.625L79.5312 96.0625V95.8438C79.5312 95.5521 78.9062 94.9896 77.6562 94.1562ZM75.9688 95L76.375 95.4062H76.8125L76.375 95H75.9688ZM79.75 95V95.2188C79.8542 95.9062 80.0625 96.25 80.375 96.25H80.8125V95.8438L82.0938 96.4688V96.25L82.2812 95.625H82.0938L79.75 95ZM96 96.9062V97.0938H96.6562V96.4688H96.4375L96 96.9062ZM87.1562 96.9062V97.0938L87.3438 97.75H88L87.3438 97.0938V96.9062H87.1562ZM91.7812 96.6875L92 96.9062V97.0938H91.375L91.7812 96.6875ZM70.875 97.0938H71.3125C71.1042 97.6562 70.8958 97.9375 70.6875 97.9375L70.25 97.5312L70.875 97.0938ZM86.5 98.5938L88 99.8438V99.625L87.5625 99.2188H88.1875L87.7812 98.375L86.5 98.5938ZM69.4062 98.5938L69.625 99.4375L68.3438 100.688V100.469C68.7396 99.2188 69.0938 98.5938 69.4062 98.5938ZM71.0938 99.4375V99.8438L71.5312 100.281H71.7188L71.0938 99.4375ZM88.625 99.4375L88.1875 99.8438V100.062H88.625L89.0312 99.4375H88.625ZM94.9688 99.625L95.1562 100.281H95.375V99.8438L95.1562 99.625H94.9688ZM91.375 100.281H91.7812L92.2188 100.688L91.375 100.906V100.281ZM97.5 100.688V102.375H98.3438L98.125 102.188V101.75H98.75V102.188H98.9688V101.531L97.7188 100.688H97.5ZM89.25 101.125V101.531H87.7812V101.75C88.1979 101.75 88.4062 101.896 88.4062 102.188L89.9062 101.531V101.125H89.25ZM70.6875 101.75V101.969L71.0938 102.375V102.188L70.6875 101.75ZM69.1875 102.375V103.031H69.8438L69.625 102.375H69.1875ZM99.4062 103.438C99.4062 103.854 99.2604 104.062 98.9688 104.062L98.75 103.875V104.062L98.9688 104.281V104.5L99.8125 103.875V103.438H99.4062ZM70.6875 103.656L70.4688 104.281L70.6875 104.5H70.875L71.3125 103.875L70.6875 103.656ZM94.9688 105.562L95.375 105.969L95.5938 105.344L94.9688 105.562ZM92.2188 106.812L92.4375 107.438H92.625V106.594L92.4375 106.812H92.2188ZM99.8125 107.25V108.094L100.438 108.281V108.094C100.229 107.531 100.021 107.25 99.8125 107.25ZM92.2188 108.281V108.938L92.4375 109.156H93.0625L92.4375 108.5V108.281H92.2188ZM68.5625 108.5C68.5625 108.875 68.9167 109.229 69.625 109.562C69.625 109.188 69.2708 108.833 68.5625 108.5ZM89.4688 108.5H89.6875L90.0938 108.938V109.344C89.8854 109.344 89.6771 109.062 89.4688 108.5ZM66.25 108.938L66.6562 109.344H66.875L66.4688 108.938H66.25ZM90.3125 109.344H90.75L90.5312 110.406H90.9375V111.031H90.0938C90.0938 110.344 89.9583 110 89.6875 110L90.3125 109.344ZM71.0938 109.781L71.3125 110.625H71.7188C71.5104 110.062 71.3021 109.781 71.0938 109.781ZM75.75 109.781C75.75 110.344 75.5417 110.625 75.125 110.625V111.469H75.3125C75.6042 111.469 75.75 111.115 75.75 110.406H76.1562V109.781H75.75ZM99.5938 110C100.115 110.417 100.615 110.625 101.094 110.625V111.031H100.656L99.5938 110.188V110ZM79.3438 110.625L79.75 111.031H79.9688L79.5312 110.625H79.3438ZM78.0625 111.25C78.0625 111.667 77.9271 111.875 77.6562 111.875V112.094H77.8438L78.6875 111.875C78.6875 112.312 78.8333 112.531 79.125 112.531H79.5312V111.875L78.0625 111.25ZM101.094 111.031H101.5L102.562 112.094V112.531L102.344 112.312H102.125L101.938 112.531H101.719L101.094 111.031ZM80.1875 111.469V112.312H80.5938L80.375 112.094V111.875L80.5938 111.688V111.469H80.1875ZM94.5312 112.312L95.1562 112.531V113.156L94.5312 112.531V112.312ZM103.406 112.312H103.625C103.938 112.312 104.146 112.667 104.25 113.375H104.469L104.656 113.156H104.875L105.094 114H104.875L105.094 114.219V114.844H104.875L103.406 112.312ZM70.0312 113.375V114H69.8438L69.625 113.781H69.4062V114.406C69.4062 114.698 69.6875 114.844 70.25 114.844V115.25H70.4688L70.25 115.469V115.906H70.4688L71.0938 115.688C71.4688 116.417 71.8958 116.844 72.375 116.969V116.75L70.25 114.844L70.4688 114.625V114.219L70.25 114.406H70.0312V114H70.4688V113.781L70.0312 113.375ZM73.625 113.375L73.4062 114.219H73.625V114L74.6875 114.625H74.9062L74.0625 113.375H73.625ZM70.6875 114.219L71.7188 115.25V115.062C71.3854 115.062 71.1771 114.781 71.0938 114.219H70.6875ZM80.1875 114.219V114.844L80.5938 114.406V114.219H80.1875ZM94.125 114.844V115.062L94.3125 115.25V115.469L94.125 115.688L94.3125 115.906H94.5312L94.75 115.688L94.9688 115.906V115.688C94.8646 115.271 94.5833 114.99 94.125 114.844ZM69.4062 115.062V115.688L69.1875 115.469H69V115.688L69.625 116.531V116.75H69.4062L69.1875 116.531H69V117.156L67.9375 116.531L67.7188 117.375L67.9375 117.594L67.5 118C67.5625 118.375 68.1979 119.083 69.4062 120.125H69.625L69.1875 118.656H69.4062L69.625 118.844H69.8438V118.656C69.7604 118.094 69.5417 117.812 69.1875 117.812V117.375L69.4062 117.594H69.8438V117.375L69.625 116.75L70.0312 116.312L69.4062 115.688L69.8438 115.25V115.062H69.4062ZM103.812 115.25V115.906H103.625V115.469H103.188V115.906L104.031 116.75L104.469 115.469H104.25L104.031 115.25H103.812ZM79.5312 115.906L79.75 116.094H79.9688V115.469L79.5312 115.906ZM68.3438 115.688V116.312H68.7812L68.5625 115.688H68.3438ZM80.1875 116.969V117.156C80.75 117.031 81.0312 116.677 81.0312 116.094L80.1875 116.969ZM100.031 116.094V116.312C100.094 116.604 100.448 116.885 101.094 117.156C100.823 116.51 100.542 116.156 100.25 116.094H100.031ZM101.5 116.312V116.531C101.792 117.094 102.219 117.375 102.781 117.375L101.938 116.312H101.5ZM101.719 118L102.562 118.844H102.781L102.344 118H101.719ZM66.6562 118.438L66.0312 119.688V119.906H66.6562L66.4688 120.531L66.25 120.344H65.625V120.75C65.1875 120.75 64.9688 120.896 64.9688 121.188V121.375C64.9688 121.667 65.1875 121.812 65.625 121.812V122.031L65.4062 122.219V122.438L65.625 122.656H65.8125L66.0312 121.812L65.8125 121.188H66.0312C66.3646 121.188 66.7188 120.969 67.0938 120.531L67.3125 120.75L67.5 120.531H67.7188L68.3438 120.969H68.5625V120.75C68.1458 120.75 67.9375 120.26 67.9375 119.281L67.7188 119.062H67.3125V119.5H67.0938L66.875 118.656L67.0938 118.438H66.6562ZM93.0625 118.438V118.656L93.9062 119.281H94.125V119.062C94.125 118.812 93.7708 118.604 93.0625 118.438ZM78.9062 118.656V118.844L79.5312 119.281V119.062L78.9062 118.656ZM96.8438 119.5V120.125L97.2812 119.688L97.0625 119.5H96.8438ZM103.406 119.5V119.688C103.969 120.188 104.25 120.688 104.25 121.188V121.812H103.625V122.031L104.469 122.219H104.656V122.031H104.25V121.812C104.812 121.812 105.094 121.323 105.094 120.344L104.656 119.906L104.469 120.125H104.25L103.406 119.5ZM83.9688 120.125V120.75H84.4062V120.531L83.9688 120.125ZM101.281 120.344V120.75L101.938 120.969H102.125V120.75L101.281 120.344ZM102.562 120.344C102.396 121.74 102.115 122.438 101.719 122.438L102.344 123.281C102.656 123.281 102.938 122.646 103.188 121.375C103.021 120.688 102.812 120.344 102.562 120.344ZM77.6562 120.75V121.375H78.0625V121.188L77.6562 120.75ZM69 121.188V121.594C68.5625 121.594 68.3438 121.74 68.3438 122.031L69 122.656V123.5L68.7812 123.719L69.8438 125.188H69.625L69.4062 124.969H69.1875L69 125.812L68.7812 125.625H68.5625V126.875L69 126.469C69.9792 126.573 70.4688 126.99 70.4688 127.719L70.6875 127.5H71.0938L71.5312 128.562H71.0938L70.875 129.188L70.25 129C70.25 129.417 70.5312 129.625 71.0938 129.625V130.25L71.3125 130.031H71.5312V130.469H71.9375V130.031C71.5208 130.031 71.3125 129.615 71.3125 128.781L73 128.344L72.5625 127.5H72.375L72.1562 127.719H71.9375L70.4688 126.469H70.875V125.625L70.6875 125.812H70.25L69.8438 125.406C69.8438 125.115 70.0521 124.969 70.4688 124.969L70.6875 125.188H71.0938V124.969C70.6771 124.969 70.4688 124.76 70.4688 124.344L70.25 124.125H70.0312V124.344L70.25 124.562H69.8438L69.1875 122.656H69.4062L69.625 122.875H70.25V122.656C69.8333 122.656 69.4167 122.375 69 121.812L69.1875 121.594V121.188H69ZM64.5625 122.219V122.656C64.6667 123.073 64.9479 123.354 65.4062 123.5V123.281L64.75 122.219H64.5625ZM63.9062 122.656L62.4375 124.75V124.969C62.4375 125.302 63.0729 125.583 64.3438 125.812H64.5625V125.625C63.6875 125.625 63.1875 125.271 63.0625 124.562L63.2812 124.344H63.5L63.7188 124.562V124.75L63.5 124.969H63.7188L63.9062 124.75H64.125L64.75 125.406V125.188L64.5625 124.562L64.75 123.906C65.0833 123.906 65.375 124.406 65.625 125.406H65.8125L66.25 124.344C65.75 124.344 64.9688 123.781 63.9062 122.656ZM101.719 124.125V124.562H101.938L102.344 124.125H101.719ZM101.094 125.188V125.406L102.344 125.625V125.406L102.125 124.75L101.094 125.188ZM62.2188 125.812V126.25C62.7812 126.25 63.0625 126.385 63.0625 126.656V126.875H62.6562L62.4375 126.656H62.2188V126.875L63.2812 127.312V127.719L63.0625 127.938V128.156L64.125 128.562C64.3333 128 64.5417 127.719 64.75 127.719V127.938L64.5625 128.156V128.344L65.625 128.781L65.1875 127.719H65.625V127.5H65.1875V127.312L65.4062 127.094V126.656H65.1875C65.1875 127.094 64.9792 127.312 64.5625 127.312L64.3438 127.094V126.656H64.75V126.469H64.5625L63.7188 126.656L62.2188 125.812ZM70.25 126.031H70.4688L70.0312 126.469H69.8438L70.25 126.031ZM105.719 129.188V129.406H105.938C105.938 128.906 106.292 128.49 107 128.156L107.625 128.344L107.406 128.156V127.938C107.719 127.938 108.073 127.448 108.469 126.469C107.906 126.469 107.552 126.885 107.406 127.719C106.281 127.927 105.719 128.417 105.719 129.188ZM97.7188 127.094V127.719H98.125V127.5L97.7188 127.094ZM60.9688 128.156L61.5938 129L61.375 129.188H61.5938L61.8125 129H62.0312C62.0312 129.5 62.5938 130.062 63.7188 130.688V131.094L63.5 131.312V131.531L64.5625 131.719V131.531L63.7188 129.625L63.5 129.844H62.875C62.5833 129.844 62.3646 129.344 62.2188 128.344H61.8125L61.5938 128.562H61.375V128.156H60.9688ZM107.844 128.156V128.781L107.625 128.562H107.406C106.99 128.896 106.781 129.604 106.781 130.688L106.562 130.469H106.375V130.688L106.781 131.094L107 130.469L107.219 130.688H107.406C107.406 130.146 107.625 129.583 108.062 129V128.156H107.844ZM62.875 128.562V129L63.5 129.188V129L63.0625 128.562H62.875ZM64.125 128.781L63.9062 129V129.625H64.3438L64.125 129.844V130.031L65.625 130.25L65.1875 129.625L65.4062 129.406C65.0312 129.406 64.6042 129.198 64.125 128.781ZM109.531 129.406V130.031L109.938 129.625L109.75 129.406H109.531ZM108.469 129.625V130.25L108.688 130.031H108.906L109.312 130.469H109.531V130.25C109.115 130.25 108.906 130.042 108.906 129.625H108.469ZM108.688 130.688V130.875L108.906 131.094H109.094L109.312 130.875H109.094L108.906 130.688H108.688ZM64.9688 132.375H65.4062L65.625 133H64.9688V132.375ZM62.6562 132.562H63.2812L63.7188 133H62.6562V132.562ZM118.469 76.875H120.562V77.0938L120.344 77.7188L120.969 78.125L121.406 77.7188V77.2812L121.188 77.0938V76.875H124.75L124.969 77.0938L125.188 76.875H126.656L126.875 77.0938L127.062 76.875H128.969V77.5L128.531 78.125V78.3438C128.969 78.2604 129.188 77.7708 129.188 76.875H131.281C132.26 76.875 133.24 78.0625 134.219 80.4375H134C133.583 80.4375 133.375 80.2292 133.375 79.8125L133.156 79.5938H132.969V79.8125C133.156 80.375 133.5 80.6562 134 80.6562L133.594 81.0938C133.01 81.0938 132.448 80.8125 131.906 80.25V80.4375L132.125 80.6562H131.281V80.25H130.844V80.4375L131.5 81.9062L130.844 82.125C130.531 81.2917 130.188 80.875 129.812 80.875L130.031 80.6562V80.4375L129.375 80.25V80.4375C129.938 81.0833 130.219 81.7188 130.219 82.3438V82.5625H130.031L128.75 80.25H128.344V80.875L127.719 80.4375L127.062 81.0938L126.875 80.875H126.656C126.094 80.9375 125.812 81.1458 125.812 81.5H125.594L125.188 80.25L125.406 80.0312V79.8125L125.188 79.5938V79.4062L125.406 78.5625C125.052 78.5625 124.833 78.8438 124.75 79.4062L124.969 79.5938V79.8125L124.75 80.6562H125.188C125.042 81.2188 124.615 81.5 123.906 81.5L123.719 81.2812V81.7188C123.427 81.7188 123.281 81.5104 123.281 81.0938L121.812 81.9062L121.594 81.0938L122.25 80.875L122.031 80.25H121.594L121.406 81.7188V81.9062H121.812C121.771 82.6771 121.49 83.3125 120.969 83.8125V84.0312H121.406V84.4375L120.781 85.0625L119.938 83.5938L120.125 83.4062H119.719L120.125 82.9688L119.719 80.6562L119.938 80.4375V79.5938H119.719C119.719 80.1146 119.51 80.6771 119.094 81.2812L119.719 82.3438L119.094 82.5625C118.76 81.7083 118.479 81.2812 118.25 81.2812L118.469 80.25V80.0312H118.25C118.25 80.4479 118.104 80.6562 117.812 80.6562L117.188 79.4062V79.1875L117.625 78.7812V78.5625C117.333 78.5625 117.188 78.7708 117.188 79.1875H116.969L116.781 78.5625C116.885 77.4375 117.448 76.875 118.469 76.875ZM150.812 76.875H153.781L153.562 77.9375V78.5625L153.781 78.7812V78.9688L152.719 79.8125V80.0312L154.188 79.1875L154.406 79.8125L154.188 80.0312L154.625 80.4375V81.0938H153.969V81.5C154.531 81.5 154.958 80.9375 155.25 79.8125L154.812 78.9688L155.031 78.7812H155.438V79.4062L156.281 78.7812L156.5 79.4062H156.719L157.562 78.9688L157.344 77.9375L157.562 77.7188H157.344L157.125 77.9375L156.938 77.7188V78.125L157.125 78.3438V78.5625H156.938L156.719 78.3438L155.656 78.7812L155.438 78.5625V78.3438H156.094V77.9375L155.031 78.125V77.9375L155.656 77.0938C155.24 77.0938 155.031 77.3021 155.031 77.7188L154.812 77.9375H154.625L153.969 76.875H164.062C164.625 77.1042 164.906 77.5938 164.906 78.3438V78.5625C164.906 79.2292 163.51 81.4688 160.719 85.2812H160.5L160.719 85.5V85.7188L156.094 92.8438C153.094 97.8646 151.125 100.875 150.188 101.875L150 101.688L149.781 101.875C149.781 101.333 149.635 101.062 149.344 101.062L148.938 101.469L150 102.531C149.896 102.948 149.469 103.5 148.719 104.188L148.094 104V103.562L148.312 103.781H148.5L148.312 102.938H148.094V103.375H147.688L147.25 102.938V102.719H147.875V102.312H147.25V102.719L146.188 102.531V102.719L146 102.938H145.781V103.375H147.031V103.781H146.406C145.719 103.781 145.302 103.5 145.156 102.938C145.573 102.938 145.781 102.656 145.781 102.094H146.188V101.875H145.781L145.562 102.094V101.875L145.781 101.25L144.531 101.688V101.469L144.719 101.25V100.844H144.531C144.531 101.26 144.385 101.469 144.094 101.469L143.469 101.25V101.062C144.094 101.062 144.583 100.708 144.938 100L143.469 100.625L143.25 100.406V100.844C142.833 100.844 142.625 101.052 142.625 101.469L143.875 102.094L144.312 101.688L144.719 102.312H144.312C144.312 102.583 144.521 102.719 144.938 102.719V102.938L144.094 103.156L143.688 102.719V103.156H142.844L143.25 102.531L143.062 102.312H142.844L142.406 102.719V103.156L143.25 104.406H143.062C142.771 104.406 142.625 104.198 142.625 103.781L142.406 103.562H142.219C141.969 104.542 141.688 105.031 141.375 105.031H140.938V104.625H140.75V105.031H140.312V104.625H140.094V105.25L140.312 105.469V105.688C139.896 105.688 139.688 105.958 139.688 106.5H139.906L140.312 106.938H139.906L139.25 106.5H139.062L138.219 107.562L137.594 107.344V107.156L137.781 106.938V106.719L137.594 106.5H137.375V106.719L137.594 106.938H136.938C136.938 106.646 136.729 106.5 136.312 106.5V105.875L136.125 106.094H135.906L136.125 106.312V106.719L135.906 106.5H135.688V106.938L136.75 107.156L136.312 108H136.125V107.562H135.688C135.688 108.188 135.333 108.677 134.625 109.031H134.438V108.625L134.844 108L134.219 107.156C134.219 106.906 134.635 106.688 135.469 106.5L135.281 106.312V106.094L135.688 105.469L135.281 104.625H135.062L134.625 105.031L134.844 105.25H134.438L133.812 104.844H133.594L132.969 105.25H132.75L133.156 104.625L132.969 104.844H132.531L132.75 104.625V104.406L128.344 97.0625L134 95.5938V96H133.594V96.4375H134L133.812 96.625V96.8438L134 97.0625H134.625L135.062 96.2188L136.125 96.4375H137.156L137.375 96.2188H137.594C138.156 96.5938 138.438 97.0833 138.438 97.6875L138.625 97.4688H138.844C139.115 97.4688 139.25 97.8229 139.25 98.5312H139.469L140.094 98.0938L140.312 98.75C140.729 98.6042 140.938 98.1771 140.938 97.4688C140.625 97.4688 140.417 97.125 140.312 96.4375L139.688 96.8438L139.25 96H139.688L139.469 95.7812V95.375C140.031 95.375 140.458 95.0938 140.75 94.5312V94.3125C140.312 94.3125 139.812 94.5938 139.25 95.1562V94.9375L139.469 94.75V94.3125H139.25V94.75H138.844L139.062 94.5312V94.3125L138.844 94.125L141.156 92.8438H141.562V93.2812L141.375 93.4688V93.6875H141.562L142.406 93.4688L142 92.8438L142.406 92.4375L142.625 92.625H142.844L143.062 92.4375V92.8438H142.625V93.0625L142.844 93.6875L142.625 93.9062L143.469 94.125V94.5312C143.052 94.5312 142.844 94.6667 142.844 94.9375C143.823 94.625 144.312 94.3542 144.312 94.125H143.875V93.9062L145.781 92.8438L146 93.0625V93.2812L145.562 93.9062C146.271 93.8021 146.625 93.4479 146.625 92.8438L147.688 92.4375V92.8438H147.25V93.0625H147.688C147.958 92.2292 148.51 91.8125 149.344 91.8125L149.156 92V92.2188H149.344L150.188 92L150.406 92.2188L152.5 90.9688V90.75L152.312 90.5312V90.3438L154.625 89.5V89.9062L155.656 89.6875V89.5C154.594 89.5 153.969 89.2188 153.781 88.6562V88.4375L154.625 88.0312L154.406 87.8125V87.5938C154.677 87.0312 155.094 86.75 155.656 86.75L155.25 87.375H155.438L155.875 86.9688H156.094L155.875 87.1875V87.375L156.5 87.5938V87.1875L157.562 87.375C157.562 86.9583 157.771 86.75 158.188 86.75V86.5312L157.969 86.3438L158.188 86.125V85.5L156.094 86.125L156.5 85.5L155.875 85.2812C155.875 85.0104 156.156 84.875 156.719 84.875V84.6562L156.094 84.0312L155.875 84.2188L155.656 84.0312V83.8125C155.948 83.8125 156.094 83.6042 156.094 83.1875H156.5L156.719 83.4062H156.938C156.938 82.9688 157.073 82.75 157.344 82.75V82.3438H157.125L155.25 82.9688L155.031 82.75L154.625 83.1875L154.812 83.4062V84.0312L154.625 83.8125H154.406V84.875H154.188L153.969 84.6562H153.781V85.2812L153.969 85.0625H154.406C154.406 85.2917 153.917 85.6458 152.938 86.125H152.719V85.7188H153.125L152.719 85.2812H152.094V85.9062H151.656V85.7188L151.875 85.5V85.2812H151.469L151.25 86.5312L151.469 86.3438H151.875L151.469 86.75H151.031L150.812 86.5312H150.625C150.625 86.8229 150.417 86.9688 150 86.9688V87.1875H150.406L150 87.5938H149.562L149.781 87.375V86.9688C149.219 87.1146 148.938 87.4688 148.938 88.0312L148.719 87.8125H148.5V88.2188L148.094 88.6562L147.875 88.4375H147.688V89.0625H146.188L146.406 88.8438L146.188 88.2188C145.917 88.2812 145.646 88.6354 145.375 89.2812H145.781V89.5L145.562 89.6875L145.781 89.9062V90.5312H145.375L145.562 90.75V90.9688H145.375L145.562 91.1562V92H144.938L144.719 90.9688L144.938 90.75H144.719C144.51 91.3125 144.302 91.5938 144.094 91.5938H143.875L143.688 90.75L143.875 90.9688H144.312V90.75C144.312 90.4792 144.104 90.3438 143.688 90.3438L143.062 90.5312L143.688 89.5H143.25L142.625 89.6875C142.854 88.8542 143.271 88.4375 143.875 88.4375V88.2188H143.469L145.375 85.0625V85.5H145.562C145.854 85.5 146 85.2917 146 84.875H146.188L146.406 85.5C145.844 85.5625 145.562 85.7708 145.562 86.125V86.3438L146.406 85.7188H146.625L146.188 86.3438C147.229 86.3438 148.073 85.8542 148.719 84.875L148.5 85.0625H148.312L148.094 84.875H147.875V85.2812L147.688 85.0625H147.469L147.688 84.875V84.4375L147.25 84.0312L146.625 84.6562H147.031V85.7188L146 84.6562H145.781V84.4375C146.198 84.4375 146.406 84.2292 146.406 83.8125L146.625 84.0312H146.844L146.625 83.8125V82.5625L147.031 82.125L147.25 82.3438L147.469 80.875L147.688 81.0938H147.875L148.312 79.4062L148.5 79.5938H148.719L148.938 79.4062L148.719 79.1875V78.7812H148.938L149.156 78.9688H149.344L150 78.7812V77.7188H149.781L149.562 78.7812H149.156V78.5625C149.156 77.4375 149.708 76.875 150.812 76.875ZM128.344 78.5625L128.125 79.4062L128.75 78.7812L128.531 78.5625H128.344ZM156.5 80.4375H156.719C157.552 80.4375 157.969 80.1562 157.969 79.5938L158.188 79.8125H158.594V79.1875L158.812 79.4062H159.031L159.875 78.9688V78.5625C157.625 79.4583 156.5 80.0833 156.5 80.4375ZM130.031 78.7812V78.9688C130.302 78.9688 130.438 79.1771 130.438 79.5938L130.844 79.1875V78.9688L130.656 79.1875H130.438L130.031 78.7812ZM150.188 78.9688L149.781 79.4062L149.562 79.1875L149.344 79.4062V79.5938H149.781L150 79.4062H150.188L150.812 79.5938L150.188 78.9688ZM126.219 79.4062V80.0312L126.438 80.25H126.656L126.438 79.4062H126.219ZM151.031 79.5938L150.625 80.0312L149.781 79.8125C149.781 80.2292 149.635 80.4375 149.344 80.4375H149.156L149.344 80.25V79.8125H148.938V80.25H148.719L148.938 80.4375V80.6562L148.5 81.2812L148.938 81.7188L149.156 81.5V81.9062L150 81.5L150.188 81.7188V81.5L150 81.2812H149.781L149.562 81.5H149.344V80.875L149.562 81.0938H149.781L150.812 80.25L151.25 80.6562V81.7188H150.812L151.031 81.5V81.2812L150.812 81.0938H150.625V81.9062L150.812 82.9688H151.031L151.875 81.2812L151.656 81.0938L151.875 80.875H151.656L151.469 81.0938V80.6562L151.875 80.0312H151.469V80.4375L151.031 80.0312L151.25 79.8125V79.5938H151.031ZM157.562 80.4375L157.75 81.7188H157.969V80.4375H157.562ZM154.625 81.7188H154.812L155.656 80.875V80.6562L154.625 81.7188ZM156.938 80.6562V80.875L157.125 81.5H157.344V80.6562H156.938ZM147.469 81.7188L148.094 81.9062L148.312 81.0938L147.469 81.7188ZM152.938 81.0938V81.5L153.781 81.7188L153.125 81.0938H152.938ZM120.781 81.7188V82.75L121.188 82.3438L120.969 82.125V81.9062L121.188 81.2812L120.781 81.7188ZM161.344 81.7188V81.9062H161.969V81.2812H161.75L161.344 81.7188ZM123.281 82.125H123.5L123.906 82.5625H123.281V82.125ZM150 82.3438V82.9688H150.406V82.3438H150ZM151.656 82.75L151.469 83.4062L151.656 83.5938H151.875L152.5 82.9688L152.312 82.75H151.656ZM122.25 82.9688L122.438 83.8125L122.25 84.0312C122.521 84.0312 122.656 84.3125 122.656 84.875L122.875 85.0625H123.281L123.094 84.875V84.6562H123.5V85.0625H123.719L123.5 85.7188L123.281 85.5H122.656L122.438 85.7188H122.25V85.2812H121.812V85.7188H121.406V85.5L122.031 84.875L121.406 84.0312C121.677 83.3854 121.958 83.0312 122.25 82.9688ZM147.688 83.5938L147.875 83.8125H148.094L148.312 83.1875H148.094L147.688 83.5938ZM123.5 83.1875L124.125 83.4062L123.906 83.5938V83.8125C124.24 83.8125 124.521 84.0938 124.75 84.6562L124.125 85.2812L123.5 83.4062V83.1875ZM124.562 83.1875H124.75C125.042 83.1875 125.188 83.3958 125.188 83.8125L125.406 84.0312H125.594L125.812 83.8125L126.219 84.2188C126.219 84.6562 126.365 84.875 126.656 84.875V85.5H126.438L124.562 83.5938V83.1875ZM155.25 83.1875H155.438L155.875 83.5938L155.25 84.0312L155.031 83.8125L155.25 83.1875ZM148.719 84.6562L148.938 84.875L149.156 84.6562H150V85.0625H150.188L150.406 84.2188H150.188L150 84.4375L149.344 84.2188V84.0312L149.562 83.8125V83.5938C149.188 83.6562 148.906 84.0104 148.719 84.6562ZM127.906 83.5938L128.75 83.8125V84.2188L128.344 84.6562L127.906 84.0312V83.5938ZM126.438 83.8125H127.5L127.281 84.875L126.438 84.0312V83.8125ZM152.094 84.2188V85.0625L152.312 84.875H152.5L152.312 84.2188H152.094ZM159.438 84.6562H160.281V84.2188H159.875L159.438 84.6562ZM152.719 84.875H152.938L153.344 84.4375H153.125L152.719 84.875ZM158.188 84.6562V84.875L158.594 85.2812H159.031L158.406 84.6562H158.188ZM156.719 85.2812V85.5H156.938L157.562 85.2812V85.0625H157.344L156.719 85.2812ZM148.719 85.9062L149.344 86.125L149.562 85.2812C149 85.4896 148.719 85.6979 148.719 85.9062ZM135.688 86.125H136.125L135.906 86.75H135.688V86.125ZM159.438 86.3438C159.438 86.6146 159.229 86.75 158.812 86.75V86.9688H159.219L159.656 86.3438H159.438ZM137.156 86.5312L137.594 86.9688V87.8125H137.375C136.729 87.5417 136.375 87.2604 136.312 86.9688V86.75L136.531 86.9688H136.75L137.156 86.5312ZM144.719 88.0312H144.938L145.375 87.5938H145.562L145.375 87.8125V88.2188H145.562L146.188 86.9688H145.781L144.719 88.0312ZM126.031 87.375H126.219L126.875 87.5938V87.8125L126.438 88.2188L126.031 87.8125V87.375ZM156.719 87.5938L156.5 87.8125V88.0312H156.719L157.344 87.8125V87.5938H156.719ZM134.438 87.8125H135.281V88.6562H135.062C134.854 88.6562 134.646 88.375 134.438 87.8125ZM150 87.8125H150.812V88.0312L150 88.2188V87.8125ZM151.469 88.0312L151.25 88.2188V88.4375H151.875V88.8438C150.958 88.8438 150.469 89.125 150.406 89.6875H149.781V89.2812L150 89.0625V88.8438L149.781 88.6562L150.406 88.4375L151.25 88.8438V88.6562L150.812 88.2188L151.031 88.0312H151.469ZM154.625 88.6562V88.8438L155.25 89.0625V88.8438L155.438 89.0625H156.094V88.6562L155.25 88.4375L154.625 88.6562ZM143.688 89.0625H144.094L144.531 88.6562H144.094L143.688 89.0625ZM152.312 88.4375H152.938V88.6562L152.312 88.8438V88.4375ZM152.938 88.8438V89.2812L152.5 89.6875L152.312 89.5L150.625 90.125V89.6875L152.938 88.8438ZM129.812 89.0625H130.031V89.9062L129.812 90.125V90.3438L130.219 90.75L130.438 90.5312H130.656V90.75L130.438 91.375L131.062 92V92.2188H130.844L130.219 92L130.031 92.2188V92.4375H130.219L130.438 92.2188V92.4375L130.219 92.625V92.8438H130.438C130.438 92.5729 130.719 92.4375 131.281 92.4375V92.2188L130.844 90.75L131.5 91.1562L131.688 89.9062H131.906V90.3438L132.125 90.125H132.312L132.75 90.5312L131.688 90.9688V91.5938L132.125 92.2188V92.4375L131.906 92.625V92.8438H132.125C132.542 92.7396 132.823 92.4583 132.969 92L132.531 91.1562L133.156 90.75H133.375C133.375 91.2083 133.583 91.6979 134 92.2188L133.812 92.4375H134.219L134.438 92.2188H134.625L135.281 92.4375V92.2188L134.844 91.5938L135.281 91.1562H135.469C135.469 91.7188 135.615 92 135.906 92L136.312 91.5938L136.531 92.4375H136.125L136.75 93.2812C136.271 93.2812 135.781 93.4896 135.281 93.9062H135.062L134.625 93.4688C134.208 93.4688 134 93.75 134 94.3125H133.812L133.375 93.9062L133.812 93.4688H133.375L133.156 93.2812L132.969 93.4688V93.6875L132.75 93.4688H132.531L132.312 93.6875V93.9062L133.375 94.3125C133.375 94.5625 132.531 94.9167 130.844 95.375V95.5938H131.281L132.531 95.1562H132.75C132.75 95.5104 131.979 95.7917 130.438 96L130.656 95.7812C130.469 95.0938 130.26 94.75 130.031 94.75V95.375L129.812 95.1562H129.188L128.969 96L129.188 96.2188L129.812 96H130.219V96.2188L129.188 96.625H128.75L128.531 96.4375L128.344 96.625H128.125C127.854 96.5417 127.292 95.7083 126.438 94.125H126.875V93.6875H126.031L126.438 92.8438L126.219 92.625H126.438L127.281 92.8438C127.281 92.4271 127.427 92.2188 127.719 92.2188L128.75 93.2812H128.969V93.0625L128.125 92.4375L127.906 92.2188V91.8125L128.125 91.5938L127.906 91.375V90.5312C129.177 90.2604 129.812 89.7708 129.812 89.0625ZM144.531 89.2812L144.094 89.9062H144.312L145.156 89.5V89.2812H144.531ZM153.781 89.0625L153.969 89.2812V89.5L153.344 89.6875V89.5L153.781 89.0625ZM149.344 89.2812H149.562V89.5L149.156 90.3438H148.938V89.6875L149.344 89.2812ZM147.25 89.5L147.031 89.6875V89.9062L147.25 90.125H147.469L148.5 89.9062C148.5 90.1979 148.292 90.3438 147.875 90.3438L148.312 91.5938H147.875L148.094 91.8125V92H147.875L147.688 91.8125H147.469L147.25 92V91.5938L147.031 91.8125H146.625L146.844 91.5938V91.375L146.625 91.5938H146.188V91.375L147.031 90.3438H146.625V90.75L146.188 90.3438L146.406 90.125L146.188 89.9062L147.25 89.5ZM135.906 89.6875H136.125L136.531 90.125L136.312 90.3438L136.531 90.5312H136.125L135.906 89.6875ZM130.656 89.9062L130.844 90.125V90.3438H130.219L130.656 89.9062ZM134.219 90.5312L134.625 90.9688L134.438 91.8125H134.219L133.812 91.375V91.1562C134.083 91.1562 134.219 90.9479 134.219 90.5312ZM149.562 90.5312C149.417 90.9479 149 91.1562 148.312 91.1562V90.75L149.562 90.5312ZM129.188 90.9688L128.969 91.1562V91.5938L129.375 92L129.594 91.1562L129.375 90.9688H129.188ZM150.188 91.1562L150.625 91.8125H149.344L150.188 91.1562ZM142.844 91.8125H143.062L143.25 92H143.469L144.312 91.8125L144.531 92H144.719C144.635 92.8542 144.219 93.2812 143.469 93.2812V93.0625L143.688 92.8438V92.625C143.125 92.625 142.844 92.3542 142.844 91.8125ZM151.656 93.6875C152.24 93.5 152.667 93.1458 152.938 92.625C152.354 92.8333 151.927 93.1875 151.656 93.6875ZM130.844 93.0625L130.656 93.2812V93.4688H131.906V93.2812L130.844 93.0625ZM128.125 93.6875L128.75 94.75H129.375L128.75 93.6875H128.125ZM141.156 95.375V95.5938L141.562 96V95.7812L141.156 95.375ZM135.062 95.375L135.281 95.5938H135.469L135.688 95.375V95.7812C135.271 95.7812 135.062 95.9271 135.062 96.2188L134.625 95.7812L135.062 95.375ZM134.438 96H134.625V96.4375H134L134.438 96ZM140.938 98.5312L141.781 99.375V99.1562C141.51 99.1562 141.375 98.9479 141.375 98.5312H140.938ZM144.312 99.375L144.719 99.7812H144.938V99.375H144.312ZM146.188 99.375V99.5625L146.844 99.7812V99.375H146.188ZM142 99.5625V99.7812L142.844 100C142.844 99.7083 142.635 99.5625 142.219 99.5625H142ZM142.219 100.219V100.844L142.625 100.406L142.406 100.219H142.219ZM146.625 101.469L146.406 101.688V102.094L146.625 101.875H146.844L147.031 102.094V101.875L146.625 101.469ZM141.375 101.688V102.094L141.781 102.531L142 101.875L141.781 101.688H141.375ZM135.062 102.938H135.281L135.906 102.531L136.125 102.719V102.312H135.906L135.062 102.938ZM143.688 103.375H144.094L144.719 103.562V103.781L144.094 104L143.688 103.375ZM149.156 104.188L149.562 104.625H149.344L151.656 108L151.469 108.188C151.823 108.188 152.24 108.677 152.719 109.656H152.094L151.875 109.469H151.656V109.656L151.469 109.469H151.031C150.76 109.469 150.625 109.677 150.625 110.094L150 109.656L149.344 109.875L149.562 109.656V109.469H149.344L149.156 109.656V109.469L148.5 109.656L148.719 109.875V110.094H148.312V110.5L149.156 110.094H149.344V110.312L147.688 110.938V110.719L147.469 110.5V110.312H148.094V109.875H147.469C147.469 110.292 146.979 110.5 146 110.5L145.781 110.719V110.938L146 111.125H145.781L145.156 110.719L144.938 111.344C145.312 111.344 145.729 111.552 146.188 111.969H146.625L146.406 111.781V111.562H147.031L147.25 111.781H147.469C147.469 111.344 147.812 111.125 148.5 111.125V111.344L148.938 111.781V111.562L148.719 111.344V111.125L150.406 110.719L150.812 111.125V110.719H151.656L152.312 111.125V110.938L152.5 111.125H152.938L152.719 110.938V110.719H153.125C153.125 110.99 153.344 111.125 153.781 111.125V111.562H153.125L152.938 111.344H152.719L152.5 111.562L152.719 111.781V112.188L152.5 111.969H152.312L152.094 112.188L150.188 111.562V111.781L150.812 112.406H150.625L150 112.188L150.188 112.406V112.625L150 112.812H149.781V112.406H149.562C149.458 113.094 149.25 113.438 148.938 113.438V113.25L148.719 113.438H148.312L148.5 113.25V112.625L147.875 113.031L147.688 112.812H147.469L147.25 113.031V113.25L148.938 114.719L148.719 114.938L148.938 115.125H148.5C148.5 114.708 148.156 114.5 147.469 114.5L147.25 114.719V114.938C148.083 115.312 148.5 115.802 148.5 116.406H148.938L150 116.188L150.188 116.406V116.188L150 115.969H150.406L151.031 116.594L150.812 116.812H151.25C151.25 117.104 151.042 117.25 150.625 117.25L150.812 118.281H151.25C151.25 117.865 151.531 117.656 152.094 117.656L152.938 117.438L153.344 117.031L153.125 116.812V116.594H153.781L154.188 117.031L153.969 117.25H153.781L153.562 117.031C153.562 117.719 153.417 118.062 153.125 118.062V118.719L153.344 118.5H153.562L154.188 118.719V118.5L154.625 117.656L155.438 118.062L155.656 117.875H155.875L156.281 118.281L156.094 118.5V118.719L156.938 118.906L156.719 119.125V119.531H156.938L157.344 119.125C157.344 118.854 157.135 118.719 156.719 118.719L157.125 118.281H157.344L157.969 118.719L158.188 118.5L158.812 119.75H157.969V119.969L158.594 120.188L159.031 119.75L159.438 120.375V120.594H158.406V120.812C158.823 120.812 159.031 120.948 159.031 121.219V121.438L158.188 121.219L156.719 121.438V121.844H157.125C157.125 122.177 156.427 122.458 155.031 122.688H154.812V122.5H155.25L155.031 121.438L155.25 121.219L155.031 121.031H154.812V121.438L153.344 121.844V121.656C153.302 121.448 152.531 121.167 151.031 120.812V121.031L151.25 121.219V121.438H151.031L150.188 121.031L150.406 120.375L149.781 119.75C150.094 119.75 150.375 119.469 150.625 118.906L149.781 118.719V118.062C150.198 118.062 150.406 117.927 150.406 117.656V117.438L149.156 117.875L148.938 117.656V118.719H149.344V119.125H148.938V119.344L149.156 119.531V119.75C148.385 120.312 147.75 120.594 147.25 120.594V120.188L148.312 119.75V119.531H147.688L147.469 119.75V119.344L147.688 119.125L147.469 118.906V118.281C147.885 118.281 148.094 118.562 148.094 119.125H148.312L148.719 118.719L148.094 118.062L147.875 118.281L147.469 117.438L147.688 117.25L147.25 116.812V116.188H147.469L147.688 116.406H147.875V115.969L146.625 116.406V116.188L146.844 114.938H146.406V115.75L146.188 116.594L146.406 117.438V118.062H146.844L146.406 118.906H146.844V119.344L146.406 119.75L146 118.906H145.781V119.125C145.927 119.583 146.208 119.865 146.625 119.969L146.844 119.75L147.031 119.969V120.375L146.844 121.438L148.312 121.656L147.875 122.688H148.094L148.719 122.5L148.938 122.688V122.281H149.156L149.562 122.688L149.156 123.125L149.344 123.344L148.312 123.531L148.5 123.75V123.969C147.208 124.052 146.438 124.469 146.188 125.219C145.312 124.198 143.771 121.469 141.562 117.031L141.781 116.812L141.156 116.406H140.938L134.625 126.688V126.469L135.062 125.219C134.646 125.219 134.438 125.5 134.438 126.062H134V126.688H134.625V126.906L133.594 127.312L133.375 127.125L133.156 127.312L132.75 126.906V126.469L133.812 126.281V126.062L132.312 125.844V126.688L132.125 126.469H131.5V127.312L131.906 127.969L131.688 128.156C131.875 129.01 132.156 129.438 132.531 129.438L132.75 128.594L132.531 128.781H132.125V128.375L133.375 127.75V128.594L132.75 130.281H132.531L132.312 130.062H132.125V130.281L132.312 130.469H132.531L131.688 132.156L128.531 131.312V131.531L126.031 130.469H125.812L125.594 130.688H125.406L124.75 130.062L123.906 130.281L123.281 129.625L123.094 129.844V130.062L123.281 130.281V130.469L123.094 130.688C124.198 131.146 124.75 131.562 124.75 131.938L126.031 131.531C126.031 131.948 126.656 132.156 127.906 132.156C127.906 132.469 128.26 132.677 128.969 132.781L129.594 132.594V133H127.719L127.5 132.781L127.281 133H119.938L119.094 132.781L118.25 133H116.969L116.562 132.594L117.625 132.781H117.812L118.031 131.938L117.188 131.094L118.25 130.469V130.281L116.781 130.062C116.781 128.896 117.479 128.198 118.875 127.969V128.375L120.125 127.969V127.531L119.719 127.125V127.312L119.5 127.125H119.281L118.25 127.312L120.125 124.156H120.969L121.188 124.812L120.969 125V125.438H121.406L121.594 124.375H121.812L122.25 124.812L122.438 124.594H122.875L122.656 124.812V125H123.094C123.094 124.438 123.229 124.156 123.5 124.156V124.375L123.281 124.594V124.812L124.125 125.219V125L124.75 125.438L124.969 125.219H125.188L126.031 125.438C126.031 125.146 125.604 125 124.75 125L124.969 124.812L124.75 124.594V123.75H125.188V123.531H124.562L124.344 124.594L124.125 124.375H123.906L124.125 123.344L123.906 123.125C122.927 122.625 122.438 122.198 122.438 121.844L122.25 122.062H122.031C122.031 122.479 122.24 122.688 122.656 122.688L122.875 122.906V123.125H122.438L121.812 122.688L121.406 123.125L121.188 122.5C121.438 122.5 121.792 122.073 122.25 121.219H122.438L122.25 121.031V120.812L124.75 117.25C125.312 117.021 125.594 116.802 125.594 116.594V116.406H125.188C127.042 113.177 128.229 111.417 128.75 111.125V111.344L128.531 111.562V111.781L128.75 111.969H128.969L128.75 112.188V112.406L129.375 113.438V113.875H129.188L128.531 113.438L128.344 113.656V113.875L128.531 114.5H128.344C127.99 114.5 127.781 114.781 127.719 115.344L128.344 115.562L128.531 115.344L128.75 115.562L128.969 115.344V115.75C129.427 115.625 129.708 115.354 129.812 114.938H129.375L129.188 115.125H128.969V114.094L129.188 114.281H129.375V114.094L130.656 114.5L130.438 114.719V115.344H130.844L131.062 115.125L131.281 115.344H131.688C131.688 114.99 131.406 114.781 130.844 114.719V114.5C130.844 114.229 131.125 114.094 131.688 114.094V113.875H131.062V113.656L131.688 112.812L131.5 112.625L131.688 112.406H132.969V112.812H133.156L133.812 112.625L134 112.812V113.25H133.594V113.656L133.812 113.438H134L134.438 113.875L133.812 114.5L134 114.719L133.594 115.125H133.812C133.812 114.854 134.021 114.719 134.438 114.719C134.438 114.302 134.646 113.948 135.062 113.656C135.062 113.094 135.198 112.812 135.469 112.812H135.906L136.125 113.031H136.312V112.812C135.896 112.688 135.688 112.271 135.688 111.562L135.906 111.781H136.531L136.75 111.125L136.938 111.344H137.375L137.156 110.5L136.938 110.719H136.75C136.5 110.719 136.292 110.365 136.125 109.656L136.312 109.469C135.958 109.469 135.75 109.115 135.688 108.406H136.531V109.875L136.938 110.312H137.156L137.594 109.875L137.156 108.812L137.375 108.625H137.594V109.031H137.781V108.188H137.375V108L138.219 107.781L138.438 108V108.188L138.219 108.406L138.844 109.031L138.625 109.25C138.833 109.812 139.042 110.094 139.25 110.094H139.469L139.688 109.031H139.906C139.906 109.448 140.115 109.656 140.531 109.656C140.531 110.094 140.667 110.312 140.938 110.312L141.375 109.875L141.562 110.094L141.781 109.875C141.781 110.292 141.927 110.5 142.219 110.5L142.406 109.656C141.865 109.656 141.448 109.167 141.156 108.188L140.531 108.406L140.938 109.031V109.25L140.531 109.656L140.094 109.25L140.312 109.031V108.812C139.896 108.812 139.688 108.604 139.688 108.188L139.469 108.406H139.062C139.062 108.135 139.479 108 140.312 108C140.312 107.375 140.458 106.948 140.75 106.719L141.562 107.344L141.375 107.562L141.562 107.781L141.781 107.562H142.406V108H141.375V108.188H141.781L141.562 108.406V108.625C141.854 108.625 142 108.906 142 109.469L142.625 109.25L142.406 109.031V108.812H142.625C143.333 109.146 143.688 109.5 143.688 109.875L144.531 109.656V109.25L144.094 108.625L145.375 108.188L146.406 108.625V108.406C146.406 108.052 146.125 107.844 145.562 107.781V107.344L146.844 108.188H147.031L146.625 107.562L146.844 107.344H147.25V108H147.688V107.781L147.031 106.938L147.25 106.719V106.312H146.844L147.031 106.094V105.688H146.406L146.625 105.875V107.156L146.406 106.938H146.188L146.406 106.719V106.312C145.844 106.312 145.562 105.958 145.562 105.25H145.781L146 105.031V104.844C146.271 104.844 146.406 105.052 146.406 105.469H147.031V104.625L147.688 105.031V104.625L148.094 105.031C147.781 105.031 147.573 105.385 147.469 106.094H148.094L147.875 105.875V105.688L148.312 105.25L148.094 105.031L148.938 104.625L149.156 104.844V104.188ZM143.469 104.406H143.875L144.312 104.844V105.688L143.688 105.469L143.875 105.25L143.469 104.406ZM145.156 104.625H145.781V104.844L145.375 105.25H145.156L145.375 105.031V104.844L145.156 104.625ZM132.531 105.031V105.469H132.75L132.531 106.312H132.312L132.125 106.094H131.906L132.125 106.312V106.719C131.833 106.719 131.688 106.51 131.688 106.094C131.958 105.448 132.24 105.094 132.531 105.031ZM133.594 105.688H133.812L134 106.312H133.594V105.688ZM141.375 105.875L142 106.094V106.312L141.375 106.938V105.875ZM148.719 106.5V106.719C149.135 106.719 149.344 106.865 149.344 107.156H148.938V107.344L149.344 107.781H150V107.344H149.562L149.781 107.156V106.719H149.344L149.562 106.5V106.312L148.719 106.5ZM142.625 106.719H142.844L143.25 107.156H143.062L142.625 106.719ZM144.938 106.719H146V107.156L144.938 106.938V106.719ZM148.094 106.938V107.344H148.719L148.312 106.938H148.094ZM131.281 106.938L131.5 107.156L130.844 108H130.656V107.781C130.865 107.219 131.073 106.938 131.281 106.938ZM140.531 107.344V108H140.938V107.344H140.531ZM137.375 107.344V108L136.531 108.406V108.188C136.635 107.771 136.917 107.49 137.375 107.344ZM142.844 107.562L143.688 108.406H143.469L142.844 108.188V107.562ZM147.469 108.625V109.031L147.688 109.25V109.469L148.312 109.031L148.5 109.25H148.938L149.156 109.031L149.344 109.25H150L149.781 109.031L149.156 108.812V108.625L148.938 108.812H148.719L147.469 108.625ZM146.625 109.25V109.656H147.25V109.25H146.625ZM130.438 109.25H130.656V110.094H130.438V109.25ZM145.375 109.656V110.094H146V109.656H145.375ZM152.312 109.875L152.5 110.094V110.312H151.875L152.312 109.875ZM130.656 110.094L131.062 110.5V110.719H130.656V110.094ZM144.312 110.938H144.938V110.5H144.719L144.312 110.938ZM131.281 110.719L132.125 111.969C132.542 111.969 132.75 111.688 132.75 111.125H132.969L133.594 111.344V111.562H133.156L133.375 111.781V111.969L133.594 111.781H134.844V112.188L133.594 112.406L131.688 111.969L131.062 112.188L131.281 111.969V111.781L130.844 111.125L131.281 110.719ZM129.594 111.969H129.812C130.083 111.969 130.219 112.25 130.219 112.812H130.844V113.031H130.438V113.25L130.656 113.438V113.656L130.219 114.094H130.031C130.031 113.365 129.812 112.938 129.375 112.812L129.594 111.969ZM142 112.188V112.625L142.406 113.438H142.844L143.469 112.812H143.25L143.062 113.031C143.062 112.469 142.917 112.188 142.625 112.188H142ZM143.469 114.094L143.875 114.5H143.469V114.719C143.74 114.719 143.875 114.927 143.875 115.344L144.094 115.562H144.531V115.344L144.312 115.125V114.938C144.875 114.938 145.156 114.719 145.156 114.281V113.875C144.74 113.875 144.531 113.667 144.531 113.25V112.812L143.469 114.094ZM132.312 113.031V113.25L132.969 113.438H133.156V113.25L132.531 113.031H132.312ZM137.594 113.031C137.594 113.448 137.448 113.656 137.156 113.656V114.094H138V114.281L137.781 114.5V114.719L138 114.938H138.438L138.219 114.719V114.5H138.625L139.906 114.938V114.5H140.094V115.125H140.531C140.531 114.562 140.74 114.281 141.156 114.281V113.875H140.938L140.312 114.5L139.25 114.094L138.625 114.281C138.354 113.531 138.01 113.115 137.594 113.031ZM150.625 112.812H150.812L151.25 113.25L151.031 113.438H150.625V112.812ZM154.625 112.812L155.25 113.656V113.875H155.031L153.969 113.031L154.625 112.812ZM138.844 113.25V113.875L139.25 113.438L139.062 113.25H138.844ZM135.906 114.094V114.281H136.125L136.531 113.875V113.656H136.312L135.906 114.094ZM142 113.656V114.281L143.25 114.5V114.094L142.406 113.656H142ZM132.531 114.719C132.99 114.573 133.271 114.292 133.375 113.875H133.156C132.948 113.875 132.74 114.156 132.531 114.719ZM149.344 113.875H150V114.281L149.344 114.094V113.875ZM135.469 114.281L135.688 114.938H135.906V114.5L135.688 114.281H135.469ZM153.781 114.094H153.969C155.094 114.448 155.656 114.792 155.656 115.125H155.438L153.781 114.094ZM142.406 115.562H143.062V114.938L142.406 115.562ZM131.906 115.344L131.5 115.969V116.594L132.312 115.562L132.125 115.344H131.906ZM132.75 115.344L132.312 116.188H132.969V115.344H132.75ZM139.906 115.344L139.688 115.562V115.75L140.531 116.188C140.323 115.625 140.115 115.344 139.906 115.344ZM141.375 115.344L141.781 115.75L142.219 115.344H141.375ZM153.344 115.75H154.188V116.188H153.344V115.75ZM131.906 116.594L132.312 117.031L132.531 116.812V116.594H131.906ZM143.469 116.594L143.25 117.25L143.469 117.438L143.25 117.656L143.469 117.875L144.531 117.656L144.312 117.438L144.531 117.25V116.812L143.875 117.25H143.688L143.875 117.031V116.594H143.469ZM155.438 116.406C156.708 116.51 157.344 116.719 157.344 117.031V117.25L156.281 117.438C156.281 117.083 156 116.875 155.438 116.812V116.406ZM146.625 117.031L147.031 117.438V117.656L146.625 117.25V117.031ZM144.719 118.062V118.281L146 117.656V117.438H145.375L144.719 118.062ZM157.562 117.25L157.75 117.438V117.656H157.125L157.562 117.25ZM143.875 117.875L143.688 118.5H143.875L144.312 118.062L144.094 117.875H143.875ZM144.094 118.906L143.875 119.125V119.344H144.531L144.094 118.906ZM134.219 119.125L133.812 119.75L134 119.969H134.219L134.438 119.125H134.219ZM136.938 119.125C136.938 119.396 136.667 119.531 136.125 119.531V119.75H136.75C136.75 119.479 136.958 119.344 137.375 119.344V119.125H136.938ZM154.188 119.75L154.406 120.375H154.812L154.625 120.188V119.969L154.812 119.344L154.188 119.75ZM145.375 119.75L146.406 120.812H146.625V120.375L145.562 119.75H145.375ZM132.969 120.812V121.031L134.438 120.812L134.219 120.594V120.375L132.969 120.812ZM132.312 120.812V121.438L132.75 121.844H132.969V121.656L132.312 120.812ZM145.156 121.844L145.375 122.5H145.781C145.781 121.938 145.917 121.656 146.188 121.656C146.188 122.073 146.333 122.281 146.625 122.281L146.844 122.062L146.625 121.031C146.188 121.031 145.698 121.302 145.156 121.844ZM159.875 120.812V121.219L160.062 121.438L159.875 121.656C159.583 121.656 159.438 122.073 159.438 122.906C159.042 122.906 158.698 123.469 158.406 124.594L157.344 125.219L157.562 125.438V125.656L157.344 125.844H156.938L155.438 125.656L155.25 125.844C155.25 125.573 155.042 125.438 154.625 125.438L154.812 125.219V124.594H154.625L153.969 125.438L153.781 125.656H153.344L152.938 125.219V125L154.625 124.375V124.156H154.188L153.562 124.375L153.125 123.969L152.938 124.156L152.719 123.969V123.75L153.125 123.344H154.188C154.188 123.698 154.885 124.25 156.281 125L156.5 124.812V125.656H156.938V125.438L156.719 125.219V125L157.125 123.969H156.5V123.75L156.281 123.969H155.656V123.531L156.719 123.344L157.125 123.75H157.75V123.531L157.562 123.344V123.125H158.812C158.812 121.917 159.167 121.146 159.875 120.812ZM122.656 121.219V121.844L123.094 121.438L122.875 121.219H122.656ZM134.625 121.219V121.656H134.844L135.281 121.219H134.625ZM149.344 121.031H150V121.438H149.344V121.031ZM151.656 121.219L152.5 122.062H152.312L152.094 121.844H151.875L151.656 122.062H151.469L150.812 121.844V121.656L151.656 121.219ZM150 121.656H150.188C150.188 122.219 150.396 122.5 150.812 122.5V122.688H150.406V123.125C151.115 123.125 151.469 123.469 151.469 124.156H151.25L149.781 123.531L150 123.344V122.906C150 122.448 149.5 122.167 148.5 122.062V121.844L150 121.656ZM157.75 121.656L158.406 121.844V122.062H157.75V121.656ZM125.594 123.75L125.812 123.969L125.188 124.594L126.219 124.375H126.438L126.875 124.812L126.656 125C127.365 125 127.719 124.719 127.719 124.156L128.531 123.969V124.156L128.125 124.812L128.969 125L129.188 124.812H129.375L130.031 125L129.812 125.656L129.594 125.438H129.188V125.844H129.594L129.812 125.656H130.031L130.219 125.844L130.844 125.219C130.26 124.094 129.635 123.531 128.969 123.531C128.969 123.073 128.615 122.729 127.906 122.5C127.906 122.708 127.625 122.917 127.062 123.125L126.875 122.062C126.438 122.062 126.01 122.625 125.594 123.75ZM157.75 122.062L156.938 122.688V122.281L157.75 122.062ZM160.281 122.5H160.5C160.958 122.688 161.375 123.24 161.75 124.156C161.396 124.156 161.188 124.438 161.125 125H161.531L161.344 125.219V125.438H162.188L161.969 125.656V126.062H162.375V126.281L161.969 126.906H162.188C162.458 126.906 162.594 126.49 162.594 125.656C164.969 128.927 166.156 131.021 166.156 131.938C165.969 132.646 165.479 133 164.688 133H163.438V132.375L163.219 132.594H162.812V131.938L163.031 132.156H163.219V131.75H163.438L164.062 131.938V131.531H164.281L164.5 132.156L164.062 132.594C164.479 132.49 164.76 132.208 164.906 131.75H164.688L164.906 131.531V131.312L164.5 130.906H164.281V131.094H164.688V131.531L163.656 131.312H163.438L163.219 131.531H163.031L162.812 129.438L163.438 129L163.219 128.375H162.812C162.812 128.688 162.531 128.969 161.969 129.219L162.188 129.438V129.625L161.75 131.094L162.375 132.375L162.188 133H160.062V132.594H159.656L159.875 132.781V133H154.812L154.406 132.594V131.531C155.01 131.531 155.635 130.969 156.281 129.844H156.5L156.094 129.219H156.5C156.5 128.406 156.854 127.844 157.562 127.531H157.75V127.75L157.344 128.156C157.344 128.865 157.698 129.427 158.406 129.844L158.812 129.219H158.188L158.406 129V128.594H157.75V128.375L157.969 128.156V127.969L159.031 128.594L159.219 128.375V127.969C158.802 127.969 158.594 127.75 158.594 127.312L158.406 127.125H158.188L157.562 127.312V126.906H157.969V125.656C158.385 125.656 158.594 125.438 158.594 125L158.812 124.812H159.031L159.219 125H159.438V124.812L159.031 124.375C159.031 123.688 159.375 123.344 160.062 123.344L160.281 122.5ZM131.688 122.906V123.125C132 123.875 132.427 124.292 132.969 124.375L132.125 122.906H131.688ZM132.531 123.125V123.531L132.969 123.969H133.375C133.167 123.406 132.958 123.125 132.75 123.125H132.531ZM126.219 123.125H126.875V123.531H126.656L126.219 123.125ZM134 123.344L133.594 124.156L134 124.594L134.438 123.531L134.219 123.344H134ZM151.25 123.125H151.656L152.094 123.531H151.656L151.25 123.125ZM126.656 123.75H126.875L127.281 124.156H126.656V123.75ZM157.562 124.156V124.594H157.969L158.188 123.969L157.562 124.156ZM159.656 123.969L159.438 124.156V124.594H159.656C159.656 124.302 159.865 124.156 160.281 124.156V123.969H159.656ZM161.75 124.375C162.167 124.375 162.375 124.656 162.375 125.219V125.438H162.188L161.75 124.594V124.375ZM133.156 124.812V125.219H132.969L132.75 125H132.531V125.656H132.75L132.969 125.438H133.156L133.375 125.656V124.812H133.156ZM147.031 124.594H147.875V124.812L147.25 125L147.031 124.812V124.594ZM119.938 125V125.219L120.344 125.656V125.438L119.938 125ZM150.188 124.812L150.625 125.219L150.406 125.438H150.625L151.25 125V125.438C151.521 125.438 151.656 125.229 151.656 124.812H151.875L152.312 125.219L152.5 126.062H152.094V126.281C152.094 126.698 152.375 126.906 152.938 126.906V127.312H152.5L152.312 127.125H152.094C152.094 127.479 152.656 127.896 153.781 128.375L154.625 127.969L154.812 128.156V127.969H154.625L154.812 127.75V127.312L154.625 127.531C154.25 127.531 153.896 127.177 153.562 126.469L154.406 126.281L155.031 127.125H156.094V127.531H155.656V127.75C156.073 127.75 156.281 127.885 156.281 128.156V128.375L155.031 129L154.812 128.781L154.406 129.844L155.031 130.906V131.094L153.969 131.75H152.938V131.531L153.344 130.906V130.688H152.938L152.719 130.906L152.5 130.688H151.875V130.906C151.875 131.177 152.083 131.312 152.5 131.312L152.312 131.531V132.156C152.729 132.156 152.938 132.302 152.938 132.594H152.719L152.5 132.375H152.312V133H151.25C150.417 133 149.781 132.365 149.344 131.094L149.781 130.469V130.281H149.562L148.938 130.688L148.719 130.062L149.344 129.438C148.365 129.438 147.812 128.948 147.688 127.969L147.875 127.75C147.188 127.75 146.844 127.26 146.844 126.281L149.156 128.375C149.844 128.375 150.188 128.24 150.188 127.969L150.406 128.156H150.812V127.75H150.406L150.188 127.969H150V127.312L149.781 127.531H149.344L147.688 126.281H148.094L148.312 126.469L148.5 126.281H149.344L149.562 126.469H149.781V126.062L149.562 125.438L149.781 125.219H150L150.188 125.438V124.812ZM146.406 125H146.625C146.625 125.292 146.833 125.438 147.25 125.438L147.469 125.656V125.844L147.25 126.062V126.281C146.542 126.094 146.188 125.885 146.188 125.656L146.406 125ZM121.812 125.656V126.062C122.229 126.062 122.438 126.198 122.438 126.469H122.656C122.865 126.469 123.073 126.198 123.281 125.656H123.094L122.656 126.062V125.656H121.812ZM158.812 125.656L158.594 125.844V126.281L158.812 126.062H159.031V126.469H159.219V125.844L159.031 125.656H158.812ZM129.594 127.125V127.531H130.219C130.219 127.115 130.427 126.906 130.844 126.906L131.062 126.688V125.844L129.594 127.125ZM147.875 125.656H148.094L148.5 126.062V126.281L147.875 125.656ZM122.656 127.312V127.75L123.906 127.312L124.125 128.156H124.562L125.594 127.125C125.594 126.75 125.104 126.469 124.125 126.281L123.906 126.469V126.281C123.49 126.281 123.281 126.625 123.281 127.312H122.656ZM155.031 126.062L155.875 126.281V126.688H155.656L155.031 126.469V126.062ZM156.719 126.281L157.125 126.688V126.906H156.5L156.719 126.281ZM160.5 126.688V127.125L160.906 127.531L161.125 127.312H161.344L161.125 126.469L160.5 126.688ZM127.281 127.312L127.062 127.125H126.875C126.25 127.438 125.896 127.781 125.812 128.156C125.812 128.865 126.302 129.219 127.281 129.219V129.844L128.344 129.625H128.531L128.344 130.688H128.75L129.594 129.844H128.75L129.375 129.219H129.812V130.062C130.417 129.917 130.833 129.562 131.062 129V128.594C130.417 128.594 129.927 128.385 129.594 127.969C128.344 127.802 127.719 127.521 127.719 127.125V126.906L127.281 127.312ZM159.438 127.75L159.656 128.375L159.438 129H159.656L160.062 128.594H159.875L160.062 128.375V128.156L159.656 127.75H159.438ZM161.344 127.75L161.531 128.375H161.969V128.156L161.531 127.75H161.344ZM119.281 129.625L120.125 129.844C120.562 129.344 120.781 128.854 120.781 128.375H120.562L119.281 129.625ZM150.188 129.219L150.625 129.625H151.031V129.438L150.812 129.219V129L150.188 129.219ZM163.031 128.781V129L162.594 129.438V129.219L163.031 128.781ZM151.875 129.438L151.656 129.625V130.062H152.312V129.844L151.875 129.438ZM155.031 129.219H155.438L155.25 129.844H154.812L155.031 129.219ZM131.5 130.062V130.281L131.906 129.844V129.625L131.5 130.062ZM156.719 129.625V130.469H157.125V130.906C156.146 131.177 155.656 131.458 155.656 131.75V132.375L156.719 132.594C156.719 132.302 156.51 132.156 156.094 132.156V131.938H156.719L156.938 132.156H157.125L157.562 131.75L157.344 131.531V130.688H157.75V130.469L157.344 130.062V130.469H157.125V129.844L157.344 129.625H156.719ZM160.719 130.281L160.906 131.531H161.344V130.062H161.125L160.906 130.281H160.719ZM118.656 130.469V131.094H118.875L119.5 130.469H119.719V130.281H119.5L118.656 130.469ZM163.219 130.281L163.438 131.094H163.656V130.469L163.438 130.281H163.219ZM159.219 131.094H159.438L160.062 130.469L159.219 131.094ZM157.969 131.531H158.594L159.031 131.094H158.406L157.969 131.531ZM151.25 131.531V132.375H151.469V131.531H151.25ZM160.719 131.938V132.594H161.125V131.938H160.719Z" fill="black"/>
</svg>
